<svg xmlns="http://www.w3.org/2000/svg" xmlns:xlink="http://www.w3.org/1999/xlink" id="Calque_8" data-name="Calque 8" viewBox="0 0 280.8 120.09"><defs><linearGradient id="D&#xE9;grad&#xE9;_sans_nom_4" data-name="D&#xE9;grad&#xE9; sans nom 4" x1="-80.33" y1="57.81" x2="457.64" y2="76.5" gradientUnits="userSpaceOnUse"><stop offset="0" stop-color="#1b2851"></stop><stop offset="1" stop-color="#145c80"></stop></linearGradient><linearGradient id="D&#xE9;grad&#xE9;_sans_nom_9" data-name="D&#xE9;grad&#xE9; sans nom 9" x1="51.86" y1="66.54" x2="131.4" y2="66.54" gradientUnits="userSpaceOnUse"><stop offset="0" stop-color="#145c80"></stop><stop offset="1" stop-color="#1b2851"></stop></linearGradient><linearGradient id="D&#xE9;grad&#xE9;_sans_nom_9-2" data-name="D&#xE9;grad&#xE9; sans nom 9" x1="49.3" y1="46.36" x2="128.84" y2="46.36" xlink:href="#D&#xE9;grad&#xE9;_sans_nom_9"></linearGradient></defs><g><path d="m131.48,78.73v-1.91l3.05-.21h.62l2.97.21v1.91h-6.64Zm1.5,0l6.73-19.35h3.88l6.81,19.35h-5.34l-5.23-16.07h.09l-.59,3.03-4.2,13.04h-2.14Zm3.26-5.49v-1.85h9.28v1.85h-9.28Zm5.76,5.49v-1.85l3.52-.23h2.41l3.73.23v1.85h-9.66Z" fill="#1b2851" stroke-width="0"></path><path d="m152.34,61.31v-1.88h10.25v1.88l-4.11.23h-2.32l-3.82-.23Zm0,17.42v-1.91l3.82-.21h.47v2.11h-4.29Zm2.32,0c.02-.98.03-1.95.03-2.92v-13.45c0-.99-.01-1.96-.03-2.92h5.26c-.02.96-.04,1.93-.05,2.91,0,.98-.01,1.96-.01,2.95v7.61c0,.95,0,1.91.01,2.89.01.98.03,1.96.05,2.94h-5.26Zm2.88,0v-1.91h8.81l-1.14,1.12,1.09-5.23h2.32l-.27,6.02h-10.81Z" fill="#1b2851" stroke-width="0"></path><path d="m169.66,61.31v-1.88h10.25v1.88l-4.11.23h-2.32l-3.82-.23Zm0,17.42v-1.91l3.82-.21h.47v2.11h-4.29Zm2.32,0c.02-.98.03-1.95.03-2.92v-13.45c0-.99-.01-1.96-.03-2.92h5.26c-.02.96-.03,1.93-.04,2.91-.01.98-.02,1.96-.02,2.95v7.61c0,.95,0,1.91.02,2.89.01.98.03,1.96.04,2.94h-5.26Zm2.88,0v-1.91h8.81l-1.15,1.12,1.09-5.23h2.32l-.26,6.02h-10.81Z" fill="#1b2851" stroke-width="0"></path><path d="m186.96,61.31v-1.88h9.93v1.88l-4.05.23h-1.88l-3.99-.23Zm0,17.42v-1.91l3.99-.21h1.88l4.05.21v1.91h-9.93Zm2.32,0c.02-.98.03-1.96.04-2.94.01-.98.02-1.96.02-2.95v-7.53c0-.98,0-1.96-.02-2.95-.01-.99-.02-1.96-.04-2.92h5.26c0,.96,0,1.93-.02,2.92-.01.99-.02,1.97-.02,2.94v7.55c0,.99,0,1.97.02,2.94.01.97.02,1.95.02,2.95h-5.26Z" fill="#1b2851" stroke-width="0"></path><path d="m197.53,78.73v-1.91l3.06-.21h.62l2.97.21v1.91h-6.64Zm1.5,0l6.72-19.35h3.88l6.81,19.35h-5.34l-5.22-16.07h.09l-.59,3.03-4.2,13.04h-2.14Zm3.26-5.49v-1.85h9.28v1.85h-9.28Zm5.76,5.49v-1.85l3.52-.23h2.41l3.73.23v1.85h-9.66Z" fill="#1b2851" stroke-width="0"></path><path d="m218.35,78.73v-1.91l3.06-.21h1.12l3.52.21v1.91h-7.7Zm14.54.06l-10.25-15.71h-.73l-.77-1.65-2.55-.09v-1.91h7.14l8.69,13.33-.06.09-.29-5.55v-7.87h2.08v19.35h-3.26Zm-12.04-.06v-18.39h1.71l.38,9.55v8.84h-2.09Zm10.07-17.42v-1.88h7.69v1.88l-2.97.23h-1.09l-3.64-.23Z" fill="#1b2851" stroke-width="0"></path><path d="m249.93,79.22c-1.49,0-2.88-.2-4.17-.6-1.29-.4-2.42-1.01-3.39-1.84-.97-.82-1.73-1.86-2.29-3.11-.56-1.25-.83-2.73-.83-4.43s.29-3.32.88-4.61,1.38-2.36,2.39-3.22c1.01-.85,2.16-1.48,3.47-1.89,1.3-.41,2.68-.62,4.13-.62,1.31,0,2.48.14,3.51.41,1.03.27,1.9.62,2.63,1.03l.15,4.58h-2.29l-1.2-4.43,2.15.23v1.73c-.69-.53-1.36-.93-2.03-1.2s-1.41-.41-2.23-.41c-1.12,0-2.14.29-3.07.88-.93.59-1.67,1.49-2.23,2.7-.56,1.21-.84,2.76-.84,4.64s.27,3.43.81,4.64c.54,1.21,1.27,2.11,2.19,2.7s1.95.88,3.08.88c.86,0,1.66-.14,2.39-.41.73-.27,1.44-.65,2.13-1.14v1.7l-2.11.21,1.14-4.43h2.32l-.18,4.58c-.74.39-1.65.73-2.71,1.01-1.07.28-2.33.42-3.77.42Z" fill="#1b2851" stroke-width="0"></path><path d="m257.94,61.31v-1.88h4.29v2.11h-.47l-3.82-.23Zm0,17.42v-1.91l3.82-.21h.47v2.11h-4.29Zm2.32,0c.02-.98.03-1.96.03-2.94v-13.44c0-.99-.01-1.96-.03-2.92h5.26c-.02.96-.04,1.93-.04,2.92-.01.99-.02,1.97-.02,2.95v7.5c0,.99,0,1.98.02,2.97,0,.99.02,1.97.04,2.95h-5.26Zm2.59-8.93v-1.94h6.81v1.94h-6.81Zm8.66-5.29l-.97-4.32,1.23,1.12h-8.64v-1.88h10.52l.21,5.08h-2.35Zm-8.37,14.22v-1.88h9.13l-1.14,1.12.97-4.46h2.35l-.21,5.23h-11.1Zm5.87-6.73l-.47-2.85v-.74l.47-2.76h1.94v6.34h-1.94Z" fill="#1b2851" stroke-width="0"></path><path d="m129.75,105.86c-1.51,0-2.9-.23-4.17-.71-1.27-.47-2.37-1.15-3.29-2.04-.92-.89-1.64-1.97-2.14-3.23-.51-1.26-.76-2.69-.76-4.27s.26-2.98.79-4.24c.53-1.26,1.27-2.35,2.22-3.26.95-.91,2.06-1.61,3.33-2.1,1.27-.49,2.65-.73,4.14-.73,1.1,0,2.15.12,3.17.35s1.92.57,2.7,1l.12,4.35h-1.85l-.82-4.26,1.97.2v1.82c-.74-.59-1.55-1.03-2.41-1.34-.86-.3-1.76-.45-2.7-.45-1.37,0-2.62.33-3.74.98-1.13.66-2.02,1.62-2.69,2.89-.66,1.27-1,2.85-1,4.73s.31,3.46.94,4.74,1.49,2.25,2.59,2.91c1.1.66,2.35.99,3.76.99,1.1,0,2.11-.15,3.05-.44.94-.29,1.78-.71,2.53-1.26v1.76l-1.97.21.82-4.35h1.85l-.12,4.41c-.74.39-1.64.71-2.7.97-1.06.26-2.26.38-3.61.38Z" fill="#1b2851" stroke-width="0"></path><path d="m148.25,105.86c-1.29,0-2.51-.23-3.66-.69-1.14-.46-2.15-1.13-3.02-2-.87-.87-1.55-1.94-2.03-3.21s-.72-2.72-.72-4.35.25-3.02.74-4.29c.49-1.27,1.16-2.35,2.03-3.25.86-.89,1.87-1.58,3.01-2.07,1.15-.49,2.36-.73,3.66-.73s2.54.23,3.67.69c1.14.46,2.13,1.13,3,2.01.86.88,1.54,1.95,2.03,3.2.49,1.25.73,2.69.73,4.32s-.24,3.01-.72,4.29-1.16,2.36-2.03,3.27-1.87,1.61-3.01,2.09-2.36.72-3.67.72Zm0-1.67c1.06,0,1.97-.23,2.75-.69s1.41-1.09,1.92-1.9c.51-.8.89-1.72,1.13-2.76s.37-2.14.37-3.29-.12-2.25-.37-3.27-.62-1.94-1.13-2.75c-.51-.8-1.15-1.43-1.92-1.9-.77-.46-1.69-.69-2.75-.69s-1.95.23-2.73.69c-.78.46-1.43,1.09-1.94,1.9-.51.8-.89,1.72-1.15,2.75s-.38,2.12-.38,3.27.13,2.25.38,3.29.64,1.96,1.15,2.76c.51.8,1.16,1.44,1.94,1.9.78.46,1.69.69,2.73.69Z" fill="#1b2851" stroke-width="0"></path><path d="m159.44,87.28v-1.53h8.9v1.53l-3.79.23h-1.44l-3.67-.23Zm10.34,18.59c-1.53,0-2.86-.28-3.99-.85s-2.02-1.43-2.64-2.58c-.63-1.16-.94-2.6-.94-4.35v-9.31c0-1.02-.01-2.03-.03-3.02h3.06c-.02,1-.03,2-.04,3.01-.01,1.01-.01,2.02-.01,3.03v5.62c0,1.57.2,2.82.62,3.77.41.95,1,1.64,1.76,2.07.76.43,1.66.65,2.7.65,1.12,0,2.05-.23,2.82-.69.76-.46,1.35-1.18,1.75-2.17s.6-2.28.6-3.86v-11.42h1.73v11.83c0,1.88-.31,3.43-.91,4.66-.61,1.22-1.47,2.13-2.57,2.73s-2.4.9-3.89.9Zm2.5-18.59v-1.53h7.63v1.53l-3.32.2h-.82l-3.49-.2Z" fill="#1b2851" stroke-width="0"></path><path d="m181.44,87.28v-1.53h4.08v1.76h-.38l-3.7-.23Zm0,18.15v-1.56l3.94-.21h.94l3.93.21v1.56h-8.81Zm2.88,0c.02-1.02.03-2.03.03-3.04v-13.61c0-1.02,0-2.03-.03-3.02h3.06c0,1.02,0,2.04-.02,3.07s-.02,2.06-.02,3.1v7.37c0,1.04,0,2.06.02,3.08.01,1.02.02,2.04.02,3.06h-3.06Zm13.36.26c-.98,0-1.73-.17-2.26-.51-.53-.34-.91-.94-1.15-1.78l-1.08-4.05c-.2-.8-.46-1.41-.78-1.84-.32-.42-.72-.71-1.2-.87-.48-.16-1.1-.23-1.87-.23h-3.41v-1.5h3.93c1.08,0,1.97-.17,2.67-.51.7-.34,1.22-.82,1.56-1.42.33-.61.5-1.29.5-2.06,0-1.19-.37-2.09-1.1-2.69-.74-.6-1.89-.9-3.45-.9h-3.87v-1.59h4.14c2.37,0,4.19.45,5.48,1.35,1.28.9,1.92,2.14,1.92,3.73,0,.94-.26,1.76-.79,2.45-.53.7-1.26,1.24-2.19,1.65s-1.99.64-3.19.72v.17c.64.02,1.22.1,1.72.24.5.14.93.35,1.29.63.36.28.68.65.95,1.1.27.45.51,1.01.7,1.67l1.53,5.02-1.09-.85,3.43.29v1.5c-.21.04-.45.08-.7.12s-.52.07-.81.1c-.28.03-.58.04-.89.04Z" fill="#1b2851" stroke-width="0"></path><path d="m200.29,91.15l.23-5.4h16.92l.23,5.4h-1.79l-1.03-5.05,1.38,1.32h-14.48l1.38-1.32-1.06,5.05h-1.79Zm3.99,14.27v-1.56l4.23-.21h.97l4.23.21v1.56h-9.43Zm3.17,0c.02-1.02.03-2.03.04-3.04s.02-2.02.02-3.04v-7.52c0-1.02,0-2.04-.02-3.06-.01-1.02-.02-2.03-.04-3.02h3.05c0,1,0,2-.01,3.01-.01,1.01-.02,2.02-.02,3.04v7.53c0,1.03,0,2.05.02,3.06,0,1.01.01,2.02.01,3.04h-3.05Z" fill="#1b2851" stroke-width="0"></path><path d="m216.3,105.42v-1.56l3-.21h.64l3.41.21v1.56h-7.05Zm1.85,0l6.93-19.82h2.47l6.99,19.82h-3.14l-5.93-17.33-.68,2.91-4.9,14.42h-1.73Zm3.32-6.25v-1.56h8.78v1.56h-8.78Zm6.35,6.25v-1.56l3.91-.21h.82l3.85.21v1.56h-8.57Z" fill="#1b2851" stroke-width="0"></path><path d="m247.43,105.86c-1.51,0-2.89-.24-4.16-.72s-2.36-1.17-3.29-2.06c-.93-.89-1.64-1.97-2.14-3.23-.5-1.26-.75-2.68-.75-4.24s.26-2.96.78-4.23c.52-1.27,1.25-2.36,2.2-3.27.95-.91,2.06-1.61,3.35-2.1,1.28-.49,2.68-.73,4.19-.73.9,0,1.73.06,2.48.17.75.12,1.44.28,2.07.48.63.21,1.17.44,1.64.69l.12,4.35h-1.85l-.85-4.29,1.97.29v1.79c-.7-.59-1.52-1.04-2.44-1.35s-1.92-.47-3-.47c-1.39,0-2.64.33-3.76,1-1.12.66-2.01,1.63-2.67,2.91s-1,2.84-1,4.7.31,3.43.94,4.71c.63,1.28,1.51,2.26,2.64,2.92,1.14.66,2.47,1,3.99,1,.94,0,1.77-.1,2.48-.31.71-.2,1.42-.48,2.13-.84l-1.2,1.41v-4.99c0-1.13-.01-2.27-.03-3.41h3.02c-.02,1.12-.04,2.24-.04,3.38-.01,1.13-.01,2.27-.01,3.41v1.41c-.94.47-1.98.86-3.1,1.16-1.13.3-2.36.46-3.72.46Zm.7-8.34v-1.47h8.11v1.47l-3.17.15h-.85l-4.08-.15Z" fill="#1b2851" stroke-width="0"></path><path d="m257.94,87.28v-1.53h4.32v1.76h-.38l-3.94-.23Zm0,18.15v-1.56l3.94-.21h.38v1.76h-4.32Zm2.88,0c.02-1.02.03-2.03.03-3.04v-13.61c0-1.02-.01-2.03-.03-3.02h3.06c0,1,0,2-.02,3.01-.01,1.01-.02,2.02-.02,3.04v7.47c0,1.05,0,2.08.02,3.1.01,1.02.02,2.04.02,3.06h-3.06Zm11.1-14.42l-.97-4.61,1.2,1.03h-9.9v-1.67h11.22l.23,5.26h-1.79Zm-9.66,14.42v-1.67h10.49l-1.2,1.03.97-4.79h1.79l-.24,5.43h-11.81Zm.12-9.25v-1.59h7.02v1.59h-7.02Zm6.34,2.67l-.56-3.17v-.7l.56-3.06h1.56v6.93h-1.56Z" fill="#1b2851" stroke-width="0"></path></g><path d="m62.26,117.03c-27.75,0-50.25-22.5-50.25-50.25S34.5,16.52,62.26,16.52c17.7,0,33.23,9.17,42.18,22.99,1.55-1.18,3.06-2.44,4.53-3.8-9.51-17.15-27.77-28.77-48.77-28.77C29.41,6.95,4.45,31.91,4.45,62.69s24.96,55.75,55.75,55.75c24.57,0,45.38-15.91,52.8-37.98-.98.66-1.98,1.3-2.99,1.92-6.57,20.11-25.45,34.65-47.75,34.65Z" fill="url(#D&#xE9;grad&#xE9;_sans_nom_4)" stroke-width="0"></path><path d="m64.68,80c-6.87,8.96-12.82,17.94-12.82,17.94,0,0,88.41-11.06,78.81-62.79-13.85,34.04-41.61,37.64-66,44.85Z" fill="url(#D&#xE9;grad&#xE9;_sans_nom_9)" fill-rule="evenodd" stroke-width="0"></path><path d="m62.11,59.82c-6.87,8.96-12.82,17.94-12.82,17.94,0,0,88.41-11.06,78.81-62.79-13.85,34.04-41.58,40.63-66,44.85Z" fill="url(#D&#xE9;grad&#xE9;_sans_nom_9-2)" fill-rule="evenodd" stroke-width="0"></path></svg>