<svg width="113" height="40" viewBox="0 0 113 40" xmlns="http://www.w3.org/2000/svg">
    <g fill-rule="nonzero" fill="none">
        <path d="m112.878 7.18-.638-.993a3.78 3.78 0 0 0-.473-3.033 3.46 3.46 0 0 0-2.525-1.615l-.857-1.216a.774.774 0 0 0-1.086-.173.787.787 0 0 0-.173 1.094l.245.34a9.097 9.097 0 0 0-2.593.936c-6.581-1.688-16.97-.319-20.08 1.99-.693.514-1.057 1.095-1.077 1.721a2.518 2.518 0 0 0 1.022 2.02c2.156 1.853 7.983 3.012 13.458 3.23-1.15 2.911-1.603 5.621-1.203 7.067a1.656 1.656 0 0 0 1.066 1.24c.206.066.422.099.638.096 2.517 0 7.158-3.808 10.616-10.075l.024-.044a7.762 7.762 0 0 0 2.205-1.955l.132.21a.8.8 0 0 0 .653.36c.15 0 .296-.044.421-.126a.787.787 0 0 0 .225-1.074z" fill="#000"/>
        <path d="M98.554 18.22c.06.073 1.09-.048 2.805-1.372 1.375-1.099 3.118-2.65 5.266-5.945a21.73 21.73 0 0 1-3.126.51c-1.199.107-2.403.154-3.607.14-1.527 3.7-1.635 6.328-1.338 6.668zM97.936 3.429c-5.085 0-10.227 1.078-12.103 2.334-.4.282-.533.484-.537.529 0 .25.236.513.44.69 1.808 1.563 7.66 2.71 13.094 2.875a25.47 25.47 0 0 1 3.182-5.12 8.22 8.22 0 0 1 .89-.913 29.113 29.113 0 0 0-4.966-.395z" fill="#FFF"/>
        <path d="m104.934 4.289-.926.807c-.251.22-.485.46-.697.72-.152.185-.3.375-.449.569a6.778 6.778 0 0 1 2.248 3.125c.491-.092.977-.21 1.455-.351.447-.152.883-.332 1.307-.541.084-.582-.076-1.587-.842-2.742a4.977 4.977 0 0 0-2.096-1.587z" fill="#FFD400"/>
        <g fill="#000">
            <path d="M5.228 38.54H2.33l-.553 1.354H.651l2.605-5.836h1.058l2.613 5.836H5.805l-.577-1.353zm-.357-.847-1.09-2.56L2.7 37.685l2.172.008zM11.476 39.785c-.36-.1-.698-.274-.99-.51l.373-.843c.263.203.558.36.874.464.334.116.684.176 1.038.178.333.023.667-.05.961-.21a.627.627 0 0 0 .321-.55.53.53 0 0 0-.18-.403 1.272 1.272 0 0 0-.45-.255 9.275 9.275 0 0 0-.745-.206 9.293 9.293 0 0 1-1.07-.319 1.795 1.795 0 0 1-.705-.492 1.351 1.351 0 0 1-.309-.925 1.571 1.571 0 0 1 .26-.876c.2-.286.479-.506.802-.63a3.133 3.133 0 0 1 1.287-.234c.351 0 .702.044 1.042.133.315.084.615.22.886.404l-.341.84a3.269 3.269 0 0 0-.802-.34 2.81 2.81 0 0 0-.801-.117 1.65 1.65 0 0 0-.946.218.668.668 0 0 0-.313.574.519.519 0 0 0 .18.404c.132.113.285.198.45.25.18.06.428.133.745.21.36.077.714.18 1.058.31.273.107.516.277.71.498.204.253.309.574.292.9a1.56 1.56 0 0 1-.26.876c-.202.282-.48.498-.802.622-.41.167-.849.247-1.29.234-.439.001-.875-.063-1.295-.19M19.985 39.785a2.698 2.698 0 0 1-.974-.51l.372-.843c.262.203.556.36.87.464.336.116.688.176 1.042.178.334.023.668-.05.962-.21a.63.63 0 0 0 .317-.55.53.53 0 0 0-.177-.403 1.308 1.308 0 0 0-.449-.255 9.275 9.275 0 0 0-.745-.206 9.397 9.397 0 0 1-1.074-.319 1.751 1.751 0 0 1-.717-.5 1.352 1.352 0 0 1-.293-.917 1.571 1.571 0 0 1 .26-.876c.198-.287.478-.507.802-.63a3.121 3.121 0 0 1 1.287-.234c.351 0 .701.044 1.042.133.315.085.614.221.885.404l-.34.84a3.269 3.269 0 0 0-.802-.34 2.854 2.854 0 0 0-.802-.117 1.669 1.669 0 0 0-.95.218.664.664 0 0 0-.308.574.527.527 0 0 0 .176.404c.13.113.282.2.445.254.185.06.433.133.75.21.36.077.713.181 1.058.31.271.107.513.277.705.498.207.252.311.574.293.9a1.56 1.56 0 0 1-.257.876c-.201.282-.48.498-.801.622-.41.168-.85.248-1.29.235-.44 0-.875-.064-1.295-.19M28.63 39.296a2.645 2.645 0 0 1-.67-1.946v-3.292h1.07v3.23c0 1.142.49 1.714 1.471 1.717.98.003 1.47-.57 1.467-1.716v-3.23h1.07v3.29a2.678 2.678 0 0 1-.665 1.947 2.909 2.909 0 0 1-3.736 0M41.623 39.89 40.42 38.18a1.591 1.591 0 0 1-.22 0h-1.29v1.7h-1.063v-5.823h2.405c.45-.011.896.074 1.31.25.35.147.648.396.854.716.205.332.31.718.3 1.11.01.401-.101.795-.32 1.13a1.905 1.905 0 0 1-.942.695l1.331 1.914-1.162.017zm-.401-4.616a1.642 1.642 0 0 0-1.07-.303h-1.243v2.326h1.255c.38.028.76-.079 1.07-.303.246-.215.38-.532.36-.86a1.05 1.05 0 0 0-.36-.86M50.945 38.54h-2.898l-.58 1.354h-1.111l2.605-5.836h1.058l2.613 5.836H51.51l-.565-1.353zm-.357-.847-1.094-2.56-1.082 2.552 2.176.008zM61.838 34.058v5.832h-.886l-3.194-3.95v3.95h-1.066v-5.832h.886l3.19 3.95v-3.95zM67.794 39.575a2.815 2.815 0 0 1-1.09-1.058 2.977 2.977 0 0 1-.401-1.543 2.945 2.945 0 0 1 .4-1.543 2.85 2.85 0 0 1 1.115-1.07 3.455 3.455 0 0 1 2.881-.137c.383.16.723.407.994.723l-.697.662a1.997 1.997 0 0 0-1.547-.686 2.175 2.175 0 0 0-1.066.262c-.308.17-.563.424-.738.731a2.248 2.248 0 0 0 0 2.116c.171.307.422.561.726.735.327.177.694.268 1.066.262a1.997 1.997 0 0 0 1.547-.69l.697.662c-.27.32-.612.568-.998.727-.413.17-.856.255-1.302.25a3.255 3.255 0 0 1-1.603-.403M80.366 38.98v.91h-4.344v-5.832h4.228v.909h-3.154v1.514h2.797v.893h-2.797v1.607zM85.376 39.785a2.686 2.686 0 0 1-.99-.51l.373-.843c.262.202.556.359.87.464.334.116.684.176 1.037.178.336.024.67-.05.966-.21a.623.623 0 0 0 .317-.55.53.53 0 0 0-.176-.403 1.308 1.308 0 0 0-.45-.255 9.275 9.275 0 0 0-.745-.206 9.396 9.396 0 0 1-1.074-.319 1.78 1.78 0 0 1-.701-.492 1.352 1.352 0 0 1-.293-.917 1.571 1.571 0 0 1 .26-.876c.198-.287.478-.507.802-.63a3.133 3.133 0 0 1 1.287-.234c.351 0 .701.044 1.042.133.315.084.615.22.886.404l-.341.84a3.269 3.269 0 0 0-.802-.34 2.854 2.854 0 0 0-.801-.117 1.637 1.637 0 0 0-.95.218.672.672 0 0 0-.309.574.527.527 0 0 0 .177.404c.132.113.286.198.453.25.18.06.428.13.745.21.36.077.714.181 1.058.311.272.105.514.276.705.497.207.252.311.574.293.9a1.53 1.53 0 0 1-.26.876c-.2.283-.48.5-.802.622-.41.168-.849.248-1.29.235-.438 0-.872-.064-1.291-.19"/>
        </g>
        <g fill="#000">
            <path d="M12.454 30.06h4.308s.032-5.956 0-7.943c-.155-4.08-3.498-7.298-7.55-7.268h-1.48a7.547 7.547 0 0 0-6.69 3.755 7.666 7.666 0 0 0 0 7.717 7.547 7.547 0 0 0 6.69 3.756 6.193 6.193 0 0 0 4.722-2.213v2.197zM8.47 26.48c-2.213 0-4.008-1.808-4.008-4.039 0-2.23 1.795-4.038 4.008-4.038 2.214 0 4.008 1.808 4.008 4.038 0 2.23-1.794 4.039-4.008 4.039M22.846 10.124h-4.308s-.032 10.665 0 12.652c.153 4.08 3.498 7.3 7.55 7.268h1.467c4.106-.095 7.385-3.476 7.385-7.614s-3.279-7.518-7.385-7.614a6.189 6.189 0 0 0-4.725 2.189l.016-6.881zm3.984 8.29c2.213 0 4.008 1.808 4.008 4.039 0 2.23-1.795 4.038-4.008 4.038s-4.008-1.808-4.008-4.038c0-2.23 1.795-4.039 4.008-4.039M41.478 23.256h10.946c.056-2.673-.588-4.781-1.932-6.324-1.344-1.542-3.316-2.312-5.915-2.31-2.322 0-4.193.696-5.611 2.088a7.107 7.107 0 0 0-2.145 5.323c0 2.39.766 4.284 2.293 5.653 1.439 1.3 3.402 2.088 6.132 2.088h2.368l2.173-3.23h-3.864c-2.79.011-4.445-1.967-4.445-3.288zm1.038-4.846a3.215 3.215 0 0 1 2.197-.763 3.159 3.159 0 0 1 2.144.735 3.154 3.154 0 0 1 1.01 2.031H41.37a3.694 3.694 0 0 1 1.146-2.019M54.416 15.192h4.312v14.594h-4.312zM58.844 12.058a2.263 2.263 0 0 1-2.25 2.108 2.263 2.263 0 0 1-2.25-2.108 2.263 2.263 0 0 1 2.25-2.107c1.182 0 2.164.92 2.25 2.107M62.099 10.124h4.312v19.662h-4.312zM69.786 10.124h4.312v19.662h-4.312zM80.59 23.256h10.962c.056-2.673-.588-4.781-1.932-6.324-1.344-1.542-3.316-2.312-5.915-2.31-2.325 0-4.195.696-5.611 2.088a7.122 7.122 0 0 0-2.172 5.323c0 2.39.765 4.284 2.296 5.653 1.439 1.3 3.399 2.088 6.132 2.088h2.369l2.172-3.23h-3.864c-2.781.011-4.436-1.967-4.436-3.288zm1.039-4.846a3.191 3.191 0 0 1 2.196-.763 3.159 3.159 0 0 1 2.144.735c.58.53.94 1.262 1.006 2.047h-6.493a3.64 3.64 0 0 1 1.147-2.019"/>
        </g>
    </g>
</svg>
