<svg xmlns="http://www.w3.org/2000/svg" viewBox="14.888 15.118 281.294 60.473">
    <defs>
        <linearGradient id="a" x1="0" x2="1" y1="0" y2="0" gradientTransform="matrix(0 -47.87775 -47.87775 0 33.843 57.81)" gradientUnits="userSpaceOnUse" spreadMethod="pad">
            <stop offset="0" stop-color="#2a7850"/>
            <stop offset=".6" stop-color="#80d2a5"/>
            <stop offset="1" stop-color="#329e67"/>
        </linearGradient>
        <linearGradient id="b" x1="0" x2="1" y1="0" y2="0" gradientTransform="matrix(0 -53.79958 -53.79958 0 33.772 67.958)" gradientUnits="userSpaceOnUse" spreadMethod="pad">
            <stop offset="0" stop-color="#329e67"/>
            <stop offset=".3" stop-color="#80d2a5"/>
            <stop offset=".55" stop-color="#329e67"/>
            <stop offset=".835" stop-color="#2a7850"/>
            <stop offset=".878" stop-color="#2a7850"/>
            <stop offset="1" stop-color="#34aa77"/>
        </linearGradient>
        <linearGradient id="c" x1="0" x2="1" y1="0" y2="0" gradientTransform="matrix(0 34.81552 34.81552 0 42.389 17.13)" gradientUnits="userSpaceOnUse" spreadMethod="pad">
            <stop offset="0" stop-color="#37b681"/>
            <stop offset="1" stop-color="#329e67"/>
        </linearGradient>
        <linearGradient id="d" x1="0" x2="1" y1="0" y2="0" gradientTransform="matrix(0 34.82872 34.82872 0 20.788 17.127)" gradientUnits="userSpaceOnUse" spreadMethod="pad">
            <stop offset="0" stop-color="#37b681"/>
            <stop offset="1" stop-color="#329e67"/>
        </linearGradient>
        <linearGradient id="e" x1="0" x2="1" y1="0" y2="0" gradientTransform="matrix(0 34.80315 34.80315 0 27.518 17.136)" gradientUnits="userSpaceOnUse" spreadMethod="pad">
            <stop offset="0" stop-color="#37b681"/>
            <stop offset="1" stop-color="#329e67"/>
        </linearGradient>
        <linearGradient id="f" x1="0" x2="1" y1="0" y2="0" gradientTransform="matrix(0 34.82036 34.82036 0 33.335 17.13)" gradientUnits="userSpaceOnUse" spreadMethod="pad">
            <stop offset="0" stop-color="#37b681"/>
            <stop offset="1" stop-color="#329e67"/>
        </linearGradient>
        <clipPath id="g">
            <path d="M0 68.031h383.105V0H0Z"/>
        </clipPath>
    </defs>
    <path fill="url(#a)" d="M56.52 11.338H11.166v45.355H56.52Z" transform="matrix(1.33333 0 0 -1.33333 0 90.708)"/>
    <path fill="url(#b)" d="M14.709 55.895c-.879 0-1.455-.743-1.59-1.783 0 0-1.133-5.954-1.133-18.596 0-12.649 1.133-20.924 1.133-20.924.104-1 .711-1.781 1.59-1.781h39.256c.877 0 1.574.695 1.592 1.781 0 0-.438 9.694-.438 19.16 0 9.467.438 20.36.438 20.36.019.968-.715 1.783-1.592 1.783z" transform="matrix(1.33333 0 0 -1.33333 0 90.708)"/>
    <path fill="url(#c)" d="M36.756 51.346c1.238-.519 6.215-3.211 6.824-4.071-2.504-.332-7.414-1.609-10.06-2.896l-.155-.312c2.919.642 6.995.978 9.807 1.13-1.051-1.539-1.746-2.273-3.342-4.016l-.148-.337c3.043 1.826 3.898 1.959 6.703 3.602 1.06-1.569 1.314-5.178 1.355-8.04.912 1.814 2.022 8.654 1.561 9.889 1.86 1.277 2.112 2.307 2.112 2.307-1.706-.149-2.647-.178-3.567-.467-2.178 1.335-7.174 3.099-10.946 3.525z" transform="matrix(1.33333 0 0 -1.33333 0 90.708)"/>
    <path fill="url(#d)" d="M18.177 30.093c-.247-2.279-.347-3.909-.02-5.73-.923-.256-1.731-.293-2.474-.609l-.142-.313c1.184-.728 2.147-1.287 3.484-1.912.716-1.536 1.455-2.574 2.652-3.758l.147.317c-.215.875-.494 1.596-.389 2.551 1.487-.434 2.762-.663 4.458-.713l.142.316c-1.49.579-2.979 1.033-4.186 2.17.382 1.055.815 1.881 1.522 2.926l.15.32c-1.278-.193-2.441-.662-3.546-.877-.873 1.533-1.214 3.633-1.653 5.631z" transform="matrix(1.33333 0 0 -1.33333 0 90.708)"/>
    <path fill="url(#e)" d="M25.771 40.49s-.959.092-2.543.043c-1.339-.06-3.337-.18-4.308-.465l-.142-.312c1.544-.067 3.66-.481 4.47-1.293 0 0-2.346-2.116-4.667-6.744 0 0 4.21 3.952 6.036 4.932 0 0 .956-3.183 1.619-4.776l.147.318c.183 1.024.64 3.801 1.418 5.501 0 0 .275.167 1.621.296 1.352.121 3.26.193 6.885-.443l.148.312c-.828.489-4.127 1.903-7.619 2.374h.113a16.358 16.358 0 0 0 1.079 2.472c-.741-.105-2.846-1.09-4.257-2.215" transform="matrix(1.33333 0 0 -1.33333 0 90.708)"/>
    <path fill="url(#f)" d="M34.596 20.963a41.613 41.613 0 0 0-.123 1.838 35.919 35.919 0 0 0-2.167-2.684c-.853-.236-1.827-.226-2.716-.217-.355.004-.697.008-1.012-.004l-.144-.316a9.666 9.666 0 0 1 2.512-.867c-.704-.641-1.646-1.129-2.305-1.574l-.147-.313c1.417.336 3.281.937 4.672 1.758.723-.033 1.398.015 1.894.113 0 0 .149.324.149.316-.092.321-.375.516-.459.963 1.303 1.012 2.246 1.932 3.336 3.028l.15.319c-1.076-.743-2.383-1.764-3.64-2.36" transform="matrix(1.33333 0 0 -1.33333 0 90.708)"/>
    <g clip-path="url(#g)" transform="matrix(1.33333 0 0 -1.33333 0 90.708)">
        <path fill="#fff" d="M46.53 44.764c-2.8-1.645-3.657-1.783-6.7-3.605 1.771 1.923 2.388 2.742 3.484 4.35-2.805-.147-6.883-.485-9.795-1.13 2.535 1.354 7.56 2.858 10.211 3.217-.615.848-5.592 3.545-6.83 4.064 3.94-.306 8.758-1.78 11.092-3.207.92.288 1.875.3 3.584.454-.436-.748-.453-1.182-2.13-2.293.464-1.245-.647-8.08-1.563-9.89-.034 2.86-.284 6.472-1.354 8.04M26.035 20.242c-1.609.596-2.768 1.291-4.043 2.482.383 1.055.818 1.877 1.53 2.934a83.901 83.901 0 0 1-3.399-.557c-.918 1.606-1.334 3.155-1.8 5.311-.25-2.285-.345-3.918-.022-5.736-1.036-.288-1.768-.538-2.618-.922 1.192-.729 2.155-1.29 3.487-1.912.715-1.534 1.455-2.57 2.654-3.754-.28 1.008-.355 1.808-.24 2.867 1.488-.434 2.762-.662 4.451-.713m4.188 22.735c-.502-.65-1.082-1.863-1.24-2.428 4.146-.56 7.472-2.69 7.472-2.69-3.625.643-5.535.563-6.888.442-1.344-.127-1.62-.285-1.62-.285-.978-2.143-1.564-5.822-1.564-5.822-.66 1.59-1.613 4.775-1.613 4.775-1.828-.978-6.035-4.935-6.035-4.935 2.312 4.632 4.66 6.74 4.66 6.74-.81.818-2.926 1.226-4.475 1.295.803.328 2.867.71 4.45.785 1.589.045 2.548-.045 2.548-.045 1.416 1.117 3.565 2.059 4.305 2.168m4.397-19.864a34.458 34.458 0 0 0-2.173-2.68c-1.394-.39-2.508-.537-3.869-.537a9.77 9.77 0 0 1 2.516-.87 17.465 17.465 0 0 0-2.454-1.888c1.418.336 3.282.938 4.668 1.758.725-.029 1.403.018 1.901.117-.13.42-.209.733-.315 1.28 1.307 1.011 2.254 1.927 3.342 3.03a22.533 22.533 0 0 0-3.494-2.044 33.94 33.94 0 0 0-.123 1.834"/>
        <path fill="#231f20" d="M73.248 48.903c2.907-.007 3.987-.61 3.987-2.2 0-.425-.13-.797-.39-1.11-.554-.667-1.662-1.01-3.039-.94h-.067l-.803-2.11h.812c1.603.049 2.995-.454 3.705-1.333.334-.404.497-.863.497-1.356 0-1.673-1.456-2.523-4.321-2.523-.48 0-1.26.004-1.757.034-.103 2.196-.108 5.186-.108 6.07 0 1.05.045 3.384.115 5.376.32.056.87.102 1.369.092M67.87 50.43c.116-1.581.198-5.541.198-6.995 0-1.324-.013-5.783-.218-7.713l-.021-.155 6.963-.002c3.398 0 7.03 1.079 7.03 4.117 0 1.907-1.377 3.317-3.952 4.087 1.888.506 3.174 1.82 3.174 3.33 0 2.474-2.846 3.418-5.505 3.474l-7.682.005zm29.997.149h-3.374l.143-3.771c.06-1.884.12-3.804.246-5.665-.231.566-.42.878-1.43 2.373-.03.053-3.54 5.49-4.761 7.024l-.033.039h-3.94l.012-.144c.11-1.577.196-5.533.196-6.993 0-1.326-.016-5.79-.22-7.716l-.015-.157h3.494l-.007.152c-.205 3.672-.205 7.368-.205 10.937v.013c.118-.431.286-.821.836-1.64.057-.094 6.064-8.88 6.37-9.4l.03-.062h2.812l-.017.157c-.208 1.93-.222 6.39-.222 7.716 0 1.46.085 5.418.197 6.993l.01.144Zm9.173-1.802c1.948.034 3.323-.371 3.98-1.182.298-.372.45-.83.45-1.367 0-2.173-2.425-2.63-4.461-2.63l-.827.03-.33.048a97.864 97.864 0 0 0 .029 4.998c.256.055.71.092 1.16.103m-5.107 1.66c.116-1.586.199-5.538.199-6.995 0-1.326-.017-5.786-.223-7.711l-.014-.154h4.168l-.017.154c-.144 1.373-.196 4.01-.214 6.044.173-.007.766-.038.766-.038l.586-.028c5.492 0 8.162 1.474 8.162 4.519 0 3.48-3.743 4.288-6.878 4.35l-6.543.007zm26.479-1.66c1.948.034 3.327-.371 3.985-1.182.294-.372.448-.83.448-1.367 0-2.173-2.425-2.63-4.466-2.63l-.826.03-.326.048a61.613 61.613 0 0 0-.026 1.906c0 .958.016 2.05.055 3.092.256.055.709.092 1.156.103m-5.107 1.66c.117-1.586.2-5.538.2-6.995 0-1.326-.016-5.786-.224-7.711l-.015-.154h4.172l-.02.154c-.141 1.373-.194 4.01-.213 6.044.175-.007.762-.038.762-.038l.589-.028c5.489 0 8.165 1.474 8.165 4.519 0 3.48-3.745 4.288-6.883 4.35l-6.537.007zm20.012-4.285c.332-.7 1.188-2.716 2.15-5.085-.145-.001-.318-.008-.318-.008l-1.832-.024s-1.896.03-2.194.04a141.03 141.03 0 0 0 2.194 5.077m-1.015 4.422h-.072l-.026-.081c-.777-2.133-5.761-13.048-6.54-14.722l-.096-.205h3.574l.025.085a59.887 59.887 0 0 0 1.18 3.443l2.953.045 2.436-.027s.43-.016.534-.016c.645-1.617 1.12-2.843 1.333-3.448l.027-.082h4.14l-6.672 15.008h-.066Zm11.118-.139c.108-1.577.198-5.536.198-6.993 0-1.326-.015-5.786-.226-7.71l-.016-.163h4.17l-.016.157c-.207 1.934-.22 6.39-.22 7.716 0 1.043.044 3.383.118 5.241.344.046.807.083 1.123.091 1.95.037 3.328-.375 3.983-1.184.3-.367.455-.825.455-1.362 0-1.728-1.629-2.605-3.14-2.69-.499-.022-.884.045-.886.045l-.285.05.184-.266c1.461-2.169 3.68-5.94 4.615-7.737l.033-.064h4.467l-.135.221c-.154.245-3.08 4.544-4.322 6.384 0 0-.043.061-.08.11 2.272.688 3.391 1.98 3.391 3.947 0 3.478-3.746 4.28-6.885 4.346l-6.54.005zm20.479.155h-3.998l.016-.144c.113-1.588.197-5.547.197-7 0-1.324-.016-5.778-.223-7.71l-.012-.155h4.165l-.018.154c-.203 1.933-.22 6.387-.22 7.711 0 1.455.085 5.414.197 7l.011.143Zm9.278-1.687c2.904-.007 3.988-.61 3.988-2.2a1.71 1.71 0 0 0-.392-1.11c-.55-.667-1.658-1.01-3.037-.94h-.073l-.797-2.11h.813c1.605.049 2.984-.454 3.7-1.333a2.09 2.09 0 0 0 .497-1.356c0-1.673-1.451-2.523-4.312-2.523-.491 0-1.274.004-1.768.034-.101 2.196-.105 5.186-.105 6.07 0 1.053.045 3.39.12 5.376.313.056.864.102 1.366.092m-5.38 1.528c.116-1.58.196-5.541.196-6.995 0-1.324-.013-5.783-.218-7.713l-.016-.155 6.959-.002c3.4 0 7.03 1.079 7.03 4.117 0 1.907-1.374 3.317-3.954 4.087 1.89.506 3.178 1.82 3.178 3.33 0 2.474-2.84 3.418-5.506 3.474l-7.678.005zm22.482-4.264c.333-.704 1.181-2.712 2.153-5.077-.148-.004-.316-.016-.316-.016l-1.84-.028s-1.889.04-2.189.044c.77 1.91 1.535 3.616 2.191 5.077M202 50.59h-2.805l-.029-.08c-.82-2.27-6.104-13.779-6.54-14.726l-.097-.202h3.58l.022.087a58.153 58.153 0 0 0 1.181 3.444c.125.003 2.951.044 2.951.044l2.44-.034s.424-.006.533-.01c.647-1.62 1.12-2.836 1.326-3.45l.03-.08h4.14l-6.666 15.007Zm7.893-3.896c0-2.64 2.654-3.703 4.988-4.657 1.82-.732 3.694-1.497 3.694-2.75 0-.386-.09-.692-.291-.924-.428-.517-1.325-.735-2.733-.67-1.371.07-2.95.517-4.691 1.325l-.731.336.006-.58v-2.697l.473-.102.289-.06c.879-.21 2.539-.607 4.223-.607 4.392 0 7.017 1.745 7.017 4.659 0 2.704-2.71 3.788-5.098 4.74-1.767.707-3.59 1.434-3.59 2.589 0 .337 0 1.34 2.258 1.34 1.692 0 3.346-.687 4.239-1.06l.859-.353-.006.569v2.726l-.853.15c-.846.166-2.262.44-3.735.44-3.78 0-6.318-1.773-6.318-4.414M78.306 27.725c-.724.428-1.615.779-2.767.779-3.379 0-4.548-2.672-4.548-4.957 0-3.174 1.95-4.771 4.567-4.771 1.634 0 2.86.76 3.955 1.726l.02-2.748c-1.116-.445-2.489-.836-4.55-.836-4.717 0-7.669 2.934-7.669 6.666 0 3.938 3.12 6.778 8.263 6.778 1.207 0 2.376-.188 3.51-.465zm11.704-5.813-1.856 4.4a104.055 104.055 0 0 1-1.931-4.4 65.175 65.175 0 0 1 1.93-.037c.595 0 1.226.02 1.857.037m-.315 8.227c.5-1.338 4.77-10.844 5.773-12.997h-3.583c-.204.592-.631 1.67-1.188 3.063-.743.018-1.503.037-2.562.037-.984 0-1.727-.019-2.581-.037a55.308 55.308 0 0 1-1.04-3.063h-3.12c.744 1.614 5.107 11.084 5.794 12.997zm13.708 0c2.73 0 5.979-.762 5.979-3.77 0-1.69-.984-2.822-2.933-3.416.277-.556 3.416-5.328 3.935-5.81h-3.88c-.854 1.613-2.786 4.883-4.197 7a4.612 4.612 0 0 1 1.003-.096c1.134 0 2.729.819 2.729 2.322 0 1.875-2.264 2.21-3.397 2.21-.575 0-1.132-.038-1.411-.075a117.797 117.797 0 0 1-.111-4.55c0-1.151 0-4.993.204-6.811h-3.62c.185 1.799.222 4.12.222 6.812 0 2.266-.02 4.975-.185 6.184zm12.911-1.635c-.074-.854-.093-3.063-.093-4.566 0-1.895 0-3.381.073-5.145.186-.018.484-.055.929-.055 3.138 0 4.773.985 4.773 4.977 0 3.807-1.671 4.883-4.846 4.809zm1.522 1.635c5.477 0 7.576-2.88 7.576-6.481 0-3.713-2.042-6.515-7.779-6.515h-4.828c.186 1.744.186 4.138.186 6.795 0 1.26 0 4.51-.186 6.2zm14.247 0c-.11-1.504-.187-4.92-.187-6.201 0-1.135.02-4.996.187-6.795h-3.602c.186 1.799.204 5.66.204 6.795 0 1.262-.075 4.697-.167 6.2zm13.781 0v-1.877c-1.022.057-3.565.13-4.42.13-.631 0-1.336 0-2.061-.054a41.862 41.862 0 0 1-.074-2.674c0-.427 0-.818.019-1.132l4.53.074v-2.024l-4.53.186c.019-1.654.037-4.215.205-5.625h-3.64c.223 1.799.223 5.66.223 6.795 0 1.262-.093 4.697-.205 6.2z"/>
    </g>
</svg>