<svg width="186" height="98" viewBox="0 0 186 98" fill="none" xmlns="http://www.w3.org/2000/svg">
<path d="M1 69V39.6141H12.6369V61.8261H15.6395V31.1081H20.4111V33.5315H25.9456V66.7852H27.4225V44.7819C27.4225 44.7659 27.4225 44.7338 27.4225 44.7177C27.4225 42.2301 30.0193 40.224 33.2329 40.224C36.4464 40.224 39.0432 42.2301 39.0432 44.7177C39.0432 44.7338 39.0432 44.7659 39.0432 44.7819H39.1081V61.1681H40.5202V24.5601H47.3205V20.5799H51.2482V23.9983H53.634V68.1334H55.3544V43.514H64.2485V67.1544H65.6443V14.8343H75.2687V44.9103H78.9529V7.82086H84.9256V2.49256H87.8307V7.82086H89.9244V65.8223H91.2877V25.4749L96.3677 18.2528L97.6337 18.1565L98.8347 18.1725L104.434 25.9884V67.6358H109.904V21.6712H111.786V16.2627H117.921V47.3177H118.976V21.254H120.388V16.1503H122.482V12.4109H127.383V16.375H129.071V21.3984H130.97V30.8032H133.616V64.3137H135.255V4.54685H137.073V1H139.913V4.48265H142.64V53.8015H143.613V25.5872H148.612V28.9254H150.544V38.3944H151.566V10.1801H154.893V5.02832H160.509V10.1801H162.197V65.9186H164.015V49.4843H167.05V46.4831H171.204V49.4041H172.292V52.4052H173.866V66.063H175.505V16.6639H180.099V66.4161H181.429V11.0949H185V69" stroke="#4646F0" stroke-width="0.5" stroke-miterlimit="10"/>
<g clip-path="url(#clip0_4776_1169)">
<path d="M65.9094 75.1047L62.1256 90.7783H62.069L55.964 75.1047H52.8973L46.8206 90.7783H46.764L42.9519 75.1047H39.6116L44.5277 95.0488H48.1605L54.3882 79.5197H54.4448L60.6725 95.0488H64.3336L69.2403 75.1047H65.9094Z" fill="black"/>
<path d="M77.3367 79.5198C72.4206 79.5198 68.9104 82.7971 68.9104 87.5552C68.9104 92.3132 72.279 95.4732 77.4593 95.4732C80.7996 95.4732 83.3568 94.2453 85.1118 91.7715L82.9038 90.1193C81.5073 92.0243 79.6862 92.9994 77.4499 92.9994C75.9024 92.9994 74.6191 92.575 73.5812 91.7444C72.5432 90.9138 72.0054 89.8394 71.9771 88.4941H85.678V87.501C85.678 82.9416 82.1678 79.5198 77.3367 79.5198ZM72.0337 86.246C72.213 83.8535 74.421 82.0026 77.365 82.0026C80.1014 82.0026 82.4226 83.8535 82.6019 86.246H72.0337Z" fill="black"/>
<path d="M96.359 79.5198C94.1887 79.5198 92.0751 80.2872 90.8484 81.6325H90.7918V79.9531H87.8101V95.0579H90.8767V86.6523C90.8767 85.3161 91.3485 84.2327 92.3015 83.402C93.2829 82.5443 94.5379 82.12 96.0853 82.12C98.9727 82.12 100.822 83.8264 100.822 86.5891V95.0488H103.889V86.1016C103.889 82.2012 100.85 79.5198 96.359 79.5198Z" fill="black"/>
<path d="M109.664 74.2473H106.295V77.326H109.664V74.2473Z" fill="black"/>
<path d="M109.569 79.9531H106.503V95.0579H109.569V79.9531Z" fill="black"/>
<path d="M131.102 79.5198C128.866 79.5198 127.026 80.3504 125.714 81.8582H125.658C124.62 80.4587 122.506 79.5198 120.449 79.5198C118.392 79.5198 116.609 80.233 115.505 81.4609H115.448V79.9531H112.589V95.0579H115.599V86.1106C115.599 83.718 117.269 82.12 119.741 82.12C122.213 82.12 123.855 83.7451 123.855 86.1106V95.0579H126.771V86.1106C126.771 83.718 128.441 82.12 130.913 82.12C133.386 82.12 134.99 83.691 134.99 86.1106V95.0579H138.028V85.4244C138.028 82.0026 135.084 79.5288 131.121 79.5288L131.102 79.5198Z" fill="black"/>
<path d="M158.844 79.5198C156.607 79.5198 154.767 80.3504 153.456 81.8582H153.399C152.361 80.4587 150.238 79.5198 148.19 79.5198C146.143 79.5198 144.35 80.233 143.246 81.4609H143.189V79.9531H140.33V95.0579H143.34V86.1106C143.34 83.718 145.011 82.12 147.483 82.12C149.955 82.12 151.597 83.7451 151.597 86.1106V95.0579H154.512V86.1106C154.512 83.718 156.183 82.12 158.655 82.12C161.127 82.12 162.731 83.691 162.731 86.1106V95.0579H165.77V85.4244C165.77 82.0026 162.826 79.5288 158.862 79.5288L158.844 79.5198Z" fill="black"/>
<path d="M176.092 79.5199C171.12 79.5199 167.43 82.9688 167.43 87.5011C167.43 92.0335 171.12 95.4823 176.092 95.4823C181.037 95.5636 184.877 91.9793 184.783 87.5011C184.868 83.032 181.027 79.4386 176.092 79.5199ZM176.092 92.8821C172.818 92.8821 170.497 90.7153 170.497 87.5011C170.497 84.287 172.818 82.1201 176.092 82.1201C179.367 82.1201 181.716 84.287 181.716 87.5011C181.716 90.7153 179.395 92.8821 176.092 92.8821Z" fill="black"/>
<path d="M15.4177 79.7996L15.4177 77.5876L29.6282 83.4922L29.6282 79.4926L15.4177 73.5699L1.21669 79.4926L1.21669 83.3478L1.21669 83.4922L1.21669 85.7223L1.21669 89.5594L1.21669 89.7219L15.4177 83.8173L15.4177 83.6548L15.4177 79.7996Z" fill="#4646F0"/>
<path d="M29.6282 96.5837L29.6282 89.7401L15.4177 83.8174L15.4177 86.9052L1.21669 92.8279L1.21669 96.5837L15.4177 90.6791L29.6282 96.5837Z" fill="#4646F0"/>
</g>
<defs>
<clipPath id="clip0_4776_1169">
<rect width="184" height="23.4742" fill="white" transform="translate(1 73.5701)"/>
</clipPath>
</defs>
</svg>
