<?xml version="1.0" encoding="UTF-8" standalone="no"?>
<svg
   xmlns:dc="http://purl.org/dc/elements/1.1/"
   xmlns:cc="http://creativecommons.org/ns#"
   xmlns:rdf="http://www.w3.org/1999/02/22-rdf-syntax-ns#"
   xmlns:svg="http://www.w3.org/2000/svg"
   xmlns="http://www.w3.org/2000/svg"
   viewBox="0 0 282.48001 136.39999"
   height="136.39999"
   width="282.48001"
   xml:space="preserve"
   id="svg2"
   version="1.1"><metadata
     id="metadata8"><rdf:RDF><cc:Work
         rdf:about=""><dc:format>image/svg+xml</dc:format><dc:type
           rdf:resource="http://purl.org/dc/dcmitype/StillImage" /></cc:Work></rdf:RDF></metadata><defs
     id="defs6" /><g
     transform="matrix(1.3333333,0,0,-1.3333333,0,136.4)"
     id="g10"><g
       transform="scale(0.1)"
       id="g12"><path
         id="path14"
         style="fill:#b1a261;fill-opacity:1;fill-rule:nonzero;stroke:none"
         d="M 1189.63,1023.04 V 895.891 c 36.77,-41.672 66.13,-89.981 86.05,-142.95 v 270.099 h -86.05" /><path
         id="path16"
         style="fill:#b1a261;fill-opacity:1;fill-rule:nonzero;stroke:none"
         d="m 958.516,755.473 v -165.16 h 86.054 c 0,68.339 -34.04,128.703 -86.054,165.16" /><path
         id="path18"
         style="fill:#b1a261;fill-opacity:1;fill-rule:nonzero;stroke:none"
         d="m 842.961,907.48 v -86.05 c 127.637,0 231.109,-103.481 231.109,-231.117 h 86.06 c 0,175.167 -142,317.167 -317.169,317.167" /><path
         id="path20"
         style="fill:#b1a261;fill-opacity:1;fill-rule:nonzero;stroke:none"
         d="m 842.961,590.313 h 86.059 v 182.339 c -26.114,12.34 -55.274,19.27 -86.059,19.27 V 590.313" /><path
         id="path22"
         style="fill:#b1a261;fill-opacity:1;fill-rule:nonzero;stroke:none"
         d="m 842.961,1023.04 v -86.052 c 191.459,0 346.679,-155.218 346.679,-346.679 h 86.04 c 0,238.988 -193.74,432.731 -432.719,432.731" /><path
         id="path24"
         style="fill:#b1a261;fill-opacity:1;fill-rule:nonzero;stroke:none"
         d="m 1160.13,1023.04 h -86.05 v -32.493 c 31.17,-18.035 60.03,-39.598 86.05,-64.156 v 96.649" /><path
         id="path26"
         style="fill:#ffffff;fill-opacity:1;fill-rule:nonzero;stroke:none"
         d="M 166.871,454.766 V 277.52 L 42.5313,454.766 H 0 V 204.27 H 42.5313 V 380.801 L 166.871,204.27 h 42.883 v 250.496 h -42.883" /><path
         id="path28"
         style="fill:#ffffff;fill-opacity:1;fill-rule:nonzero;stroke:none"
         d="m 326.234,383.652 c -24.656,0 -44.668,-8.925 -59.668,-26.797 -14.652,-17.871 -22.16,-40.019 -22.16,-66.101 0,-26.797 8.223,-48.594 24.301,-65.391 16.078,-16.797 37.52,-25.019 63.598,-25.019 29.664,0 53.961,11.797 72.539,35.73 l -27.508,25.735 c -11.078,-16.446 -26.09,-24.649 -45.031,-24.649 -26.078,0 -44.305,16.426 -46.086,42.52 h 119.699 l 0.355,14.285 c 0,44.308 -23.226,89.687 -80.039,89.687 m -37.879,-71.464 c 3.93,18.937 16.801,34.308 38.243,34.308 24.648,0 36.09,-16.074 36.449,-34.308 h -74.692" /><path
         id="path30"
         style="fill:#ffffff;fill-opacity:1;fill-rule:nonzero;stroke:none"
         d="m 619.586,340.781 h 56.871 V 204.277 h 42.52 v 136.504 h 56.871 v 38.586 H 619.586 v -38.586" /><path
         id="path32"
         style="fill:#ffffff;fill-opacity:1;fill-rule:nonzero;stroke:none"
         d="m 1001.64,340.781 h 56.87 V 204.277 h 42.53 v 136.504 h 56.86 v 38.586 h -156.26 v -38.586" /><path
         id="path34"
         style="fill:#ffffff;fill-opacity:1;fill-rule:nonzero;stroke:none"
         d="m 911.52,350.07 -25.008,4.285 c -27.524,4.278 -41.453,15.723 -41.453,33.946 0,17.16 15,31.797 43.589,31.797 25.008,0 46.45,-11.075 64.684,-32.871 l 29.656,31.457 c -25.371,26.796 -56.097,40.019 -92.547,40.019 -24.664,0 -45.382,-6.445 -62.531,-19.668 -17.164,-13.215 -25.73,-30.363 -25.73,-51.808 0,-40.379 27.508,-65.75 75.039,-74.317 l 30.371,-5.008 c 27.508,-4.64 41.09,-16.797 41.09,-35.734 0,-19.648 -17.153,-33.23 -47.524,-33.23 -36.086,0 -57.886,14.648 -76.105,38.593 l -28.949,-29.308 c 25.371,-31.797 58.597,-47.871 99.695,-47.871 29.664,0 52.883,6.789 70.043,20.011 17.148,13.575 25.719,31.082 25.719,52.528 0,41.086 -26.079,68.593 -80.039,77.179" /><path
         id="path36"
         style="fill:#ffffff;fill-opacity:1;fill-rule:nonzero;stroke:none"
         d="m 1306.01,363.645 c -12.86,13.222 -29.3,20.007 -49.67,20.007 -25.01,0 -45.38,-8.574 -61.46,-26.074 -16.08,-17.508 -23.94,-39.316 -23.94,-65.75 0,-26.445 7.86,-48.242 23.94,-65.754 16.08,-17.148 36.45,-25.73 61.46,-25.73 18.58,0 35.02,5.722 48.95,16.804 v -12.871 h 40.74 v 175.09 h -40.02 z m -47.17,-128.282 c -30.01,0 -46.45,25.008 -46.45,56.465 0,31.434 16.44,54.668 46.45,54.668 30.02,0 47.17,-23.594 47.17,-54.668 0,-31.457 -17.15,-56.465 -47.17,-56.465" /><path
         id="path38"
         style="fill:#ffffff;fill-opacity:1;fill-rule:nonzero;stroke:none"
         d="m 1516.18,363.645 c -12.86,13.222 -29.29,20.007 -49.67,20.007 -25.01,0 -45.38,-8.574 -61.46,-26.074 -16.07,-17.508 -23.94,-39.316 -23.94,-65.75 0,-26.445 7.87,-48.242 23.94,-65.754 16.08,-17.148 36.45,-25.73 61.46,-25.73 18.58,0 35.02,5.722 48.96,16.804 l -0.03,-7.644 c 0,-32.356 -19.24,-49.805 -47.96,-49.805 -21.44,0 -38.18,10.176 -49.45,30.899 l -29.82,-28.36 c 6.91,-9.824 17.09,-18.547 30.18,-26.914 13.1,-8.359 29.82,-12.715 49.82,-12.715 26.54,0 47.99,7.996 63.99,24.356 16,16.355 24,37.82 24,64.715 v 167.687 h -40.02 z m -47.17,-128.282 c -30.01,0 -46.45,25.008 -46.45,56.465 0,31.434 16.44,54.668 46.45,54.668 30.02,0 47.17,-23.594 47.17,-54.668 0,-31.457 -17.15,-56.465 -47.17,-56.465" /><path
         id="path40"
         style="fill:#ffffff;fill-opacity:1;fill-rule:nonzero;stroke:none"
         d="m 561.77,383.652 -46.715,-55.312 -47.047,55.312 -30.34,-24.941 51.191,-63.055 -57.05,-70.371 30.339,-24.941 52.907,62.625 52.898,-62.625 30.356,24.941 -57.063,70.371 50.867,63.055 -30.343,24.941" /><path
         id="path42"
         style="fill:#ffffff;fill-opacity:1;fill-rule:nonzero;stroke:none"
         d="m 1753.48,293.965 c 0,44.308 -23.23,89.687 -80.04,89.687 -24.66,0 -44.67,-8.933 -59.68,-26.797 -14.65,-17.871 -22.15,-40.019 -22.15,-66.113 0,-26.797 8.22,-48.582 24.29,-65.39 16.08,-16.786 37.53,-25.008 63.6,-25.008 29.66,0 53.97,11.797 72.54,35.73 l -27.51,25.735 c -11.07,-16.426 -26.08,-24.649 -45.03,-24.649 -26.07,0 -44.29,16.426 -46.09,42.52 h 119.71 z m -117.92,18.223 c 3.93,18.937 16.79,34.296 38.23,34.296 24.66,0 36.09,-16.062 36.45,-34.296 h -74.68" /><path
         id="path44"
         style="fill:#b1a261;fill-opacity:1;fill-rule:nonzero;stroke:none"
         d="m 1863.61,379.563 68.28,-175.286 h -20.51 l -16,40.254 h -85.53 l -15.49,-40.254 h -20.77 l 68.53,175.286 z m -10.99,-24.512 -35.27,-92.266 h 71.03 z" /><path
         id="path46"
         style="fill:#b1a261;fill-opacity:1;fill-rule:nonzero;stroke:none"
         d="M 2100.14,379.57 2038.87,264.785 1977.6,379.57 h -18.49 V 204.277 h 19.01 v 133.028 l 51.26,-94.278 h 18.99 l 51.27,94.278 V 204.277 h 19 V 379.57 h -18.5" /><path
         id="path48"
         style="fill:#ffffff;fill-opacity:1;fill-rule:nonzero;stroke:none"
         d="m 421.559,16 c 3.347,2.6484 5.589,6.6289 6.718,11.9297 l 12.5,-2.5586 C 439.27,17.4297 435.641,11.2109 429.891,6.73047 424.152,2.23828 417.367,0 409.527,0 c -9.336,0 -17.226,3.19141 -23.668,9.55859 -6.429,6.38281 -9.664,14.23051 -9.664,23.57811 0,9.2852 3.235,17.1289 9.664,23.5352 6.442,6.4062 14.332,9.6094 23.668,9.6094 7.774,0 14.524,-2.1875 20.262,-6.5821 5.758,-4.3867 9.41,-10.3437 10.988,-17.8515 l -12.5,-3.4961 c -1.129,5.2422 -3.386,9.1797 -6.765,11.8359 -3.371,2.6563 -7.375,3.9727 -11.985,3.9727 -5.738,0 -10.566,-2 -14.476,-6.0157 -3.91,-4.0039 -5.871,-9.0039 -5.871,-15.0078 0,-5.9961 1.968,-11.0156 5.91,-15.0586 3.949,-4.039 8.758,-6.0586 14.437,-6.0586 4.672,0 8.684,1.3321 12.032,3.9805" /><path
         id="path50"
         style="fill:#ffffff;fill-opacity:1;fill-rule:nonzero;stroke:none"
         d="M 479.121,64.8555 451.664,1.42969 h 13.918 l 5.582,13.51951 h 28.031 l 5.489,-13.51951 h 13.921 l -27.46,63.42581 z m 6.074,-15.6172 9.18,-22.6367 h -18.473 z" /><path
         id="path52"
         style="fill:#ffffff;fill-opacity:1;fill-rule:nonzero;stroke:none"
         d="m 564.758,64.8555 c 7.203,0 12.91,-1.9336 17.14,-5.8203 4.231,-3.8789 6.34,-9.043 6.34,-15.4805 0,-6.4922 -2.09,-11.6992 -6.289,-15.5742 -4.199,-3.8867 -9.929,-5.8203 -17.191,-5.8203 h -16.66 V 1.42188 H 535.223 V 64.8555 Z m 0,-31.0469 c 3.422,0 6.039,0.8789 7.91,2.6484 1.859,1.7578 2.793,4.1289 2.793,7.0977 0,2.9023 -0.934,5.2461 -2.793,7.0117 -1.871,1.7578 -4.488,2.6484 -7.91,2.6484 h -16.66 V 33.8086 h 16.66" /><path
         id="path54"
         style="fill:#ffffff;fill-opacity:1;fill-rule:nonzero;stroke:none"
         d="m 607.164,1.42969 h 12.883 V 64.8555 H 607.164 V 1.42969" /><path
         id="path56"
         style="fill:#ffffff;fill-opacity:1;fill-rule:nonzero;stroke:none"
         d="M 637.391,64.8555 V 53.2031 h 21.105 V 1.42969 h 12.883 V 53.2031 H 692.5 v 11.6524 h -55.109" /><path
         id="path58"
         style="fill:#ffffff;fill-opacity:1;fill-rule:nonzero;stroke:none"
         d="M 723.492,64.8555 696.031,1.42969 h 13.922 l 5.578,13.51951 h 28.032 l 5.492,-13.51951 h 13.914 L 735.516,64.8555 Z m 6.071,-15.6172 9.179,-22.6367 H 720.27 Z" /><path
         id="path60"
         style="fill:#ffffff;fill-opacity:1;fill-rule:nonzero;stroke:none"
         d="M 779.59,64.8555 V 1.42969 h 45.64 V 13.0703 H 792.469 V 64.8555 H 779.59" /><path
         id="path62"
         style="fill:#ffffff;fill-opacity:1;fill-rule:nonzero;stroke:none"
         d="M 877.645,64.8555 V 1.42969 h 48.203 V 13.0703 h -35.332 v 14.3828 h 32.375 v 11.4532 h -32.375 v 14.2968 h 35.129 v 11.6524 h -48" /><path
         id="path64"
         style="fill:#ffffff;fill-opacity:1;fill-rule:nonzero;stroke:none"
         d="M 993.836,64.8555 V 23.0117 L 958.703,64.8555 H 947.918 V 1.42969 h 12.875 V 42.1406 L 995.914,1.42969 h 10.796 V 64.8555 h -12.874" /><path
         id="path66"
         style="fill:#ffffff;fill-opacity:1;fill-rule:nonzero;stroke:none"
         d="M 1024.22,64.8555 V 53.2031 h 21.12 V 1.42969 h 12.88 V 53.2031 h 21.11 v 11.6524 h -55.11" /><path
         id="path68"
         style="fill:#ffffff;fill-opacity:1;fill-rule:nonzero;stroke:none"
         d="M 1137.35,1.42188 1116.44,24.707 h -6.73 V 1.42188 h -12.87 V 64.8633 h 30.39 c 6.8,0 12.31,-1.8555 16.48,-5.5469 4.16,-3.6914 6.24,-8.5234 6.24,-14.5312 0,-5.3008 -1.63,-9.7149 -4.92,-13.25 C 1141.75,28 1137.33,25.8125 1131.77,25 l 21.31,-23.57812 z m -10.12,34.93752 c 2.97,0 5.37,0.7695 7.19,2.3242 1.84,1.5312 2.76,3.5742 2.76,6.1016 0,2.5195 -0.92,4.5507 -2.76,6.1054 -1.82,1.5508 -4.22,2.3242 -7.19,2.3242 h -17.52 V 36.3594 h 17.52" /><path
         id="path70"
         style="fill:#ffffff;fill-opacity:1;fill-rule:nonzero;stroke:none"
         d="M 1170.63,64.8555 V 1.42969 h 48.2 V 13.0703 h -35.32 v 14.3828 h 32.38 v 11.4532 h -32.38 v 14.2968 h 35.13 v 11.6524 h -48.01" /><path
         id="path72"
         style="fill:#ffffff;fill-opacity:1;fill-rule:nonzero;stroke:none"
         d="m 1270.44,64.8555 c 7.21,0 12.91,-1.9336 17.15,-5.8203 4.23,-3.8789 6.34,-9.043 6.34,-15.4805 0,-6.4922 -2.09,-11.6992 -6.29,-15.5742 -4.2,-3.8867 -9.93,-5.8203 -17.2,-5.8203 h -16.66 V 1.42188 H 1240.9 V 64.8555 Z m 0,-31.0469 c 3.43,0 6.05,0.8789 7.91,2.6484 1.87,1.7578 2.79,4.1289 2.79,7.0977 0,2.9023 -0.92,5.2461 -2.79,7.0117 -1.86,1.7578 -4.48,2.6484 -7.91,2.6484 h -16.66 V 33.8086 h 16.66" /><path
         id="path74"
         style="fill:#ffffff;fill-opacity:1;fill-rule:nonzero;stroke:none"
         d="M 1353.17,1.42188 1332.26,24.707 h -6.73 V 1.42188 h -12.87 V 64.8633 h 30.39 c 6.8,0 12.3,-1.8555 16.47,-5.5469 4.16,-3.6914 6.24,-8.5234 6.24,-14.5312 0,-5.3008 -1.62,-9.7149 -4.91,-13.25 C 1357.57,28 1353.15,25.8125 1347.59,25 L 1368.9,1.42188 Z m -10.12,34.93752 c 2.97,0 5.37,0.7695 7.19,2.3242 1.84,1.5312 2.75,3.5742 2.75,6.1016 0,2.5195 -0.91,4.5507 -2.75,6.1054 -1.82,1.5508 -4.22,2.3242 -7.19,2.3242 h -17.52 V 36.3594 h 17.52" /><path
         id="path76"
         style="fill:#ffffff;fill-opacity:1;fill-rule:nonzero;stroke:none"
         d="M 1386.45,64.8555 V 1.42969 h 48.2 V 13.0703 h -35.32 v 14.3828 h 32.38 v 11.4532 h -32.38 v 14.2968 h 35.13 v 11.6524 h -48.01" /><path
         id="path78"
         style="fill:#ffffff;fill-opacity:1;fill-rule:nonzero;stroke:none"
         d="M 1502.65,64.8555 V 23.0117 l -35.13,41.8438 h -10.8 V 1.42969 h 12.88 V 42.1406 l 35.13,-40.71091 h 10.79 V 64.8555 h -12.87" /><path
         id="path80"
         style="fill:#ffffff;fill-opacity:1;fill-rule:nonzero;stroke:none"
         d="M 1539.11,64.8555 V 1.42969 h 48.2 V 13.0703 h -35.33 v 14.3828 h 32.39 v 11.4532 h -32.39 v 14.2968 h 35.14 v 11.6524 h -48.01" /><path
         id="path82"
         style="fill:#ffffff;fill-opacity:1;fill-rule:nonzero;stroke:none"
         d="m 1663.2,29.8242 c 0,-8.8945 -2.49,-16.0937 -7.48,-21.59373 C 1650.73,2.73828 1644.14,0 1635.94,0 c -8.39,0 -15.16,2.73828 -20.27,8.23047 -5.1,5.50003 -7.66,12.69923 -7.66,21.59373 v 35.0313 h 12.87 V 29.8242 c 0,-5.3008 1.38,-9.5547 4.12,-12.7344 2.75,-3.1796 6.39,-4.7812 10.94,-4.7812 4.29,0 7.75,1.6016 10.42,4.7812 2.64,3.1797 3.96,7.4336 3.96,12.7344 v 35.0313 h 12.88 V 29.8242" /><path
         id="path84"
         style="fill:#ffffff;fill-opacity:1;fill-rule:nonzero;stroke:none"
         d="M 1726.74,1.42188 1705.81,24.707 h -6.73 V 1.42188 h -12.87 V 64.8633 h 30.39 c 6.83,0 12.32,-1.8555 16.49,-5.5469 4.16,-3.6914 6.24,-8.5234 6.24,-14.5312 0,-5.3008 -1.63,-9.7149 -4.92,-13.25 C 1731.12,28 1726.7,25.8125 1721.14,25 L 1742.45,1.42188 Z M 1716.6,36.3594 c 2.97,0 5.37,0.7695 7.2,2.3242 1.84,1.5312 2.74,3.5742 2.74,6.1016 0,2.5195 -0.9,4.5507 -2.74,6.1054 -1.83,1.5508 -4.23,2.3242 -7.2,2.3242 h -17.52 V 36.3594 h 17.52" /></g></g></svg>