<svg xmlns="http://www.w3.org/2000/svg" id="Calque_1" viewBox="0 0 1355 280"><defs><style>      .st0 {        fill: #fffcf5;      }    </style></defs><path class="st0" d="M442.99,122.81c-12.38-6.16-27.25-9.28-44.19-9.28-17.99,0-33.58,3.53-46.34,10.49-12.74,6.96-22.57,16.54-29.22,28.5-6.67,11.98-10.05,25.62-10.05,40.55,0,17.19,3.77,32.2,11.22,44.61,7.45,12.41,17.98,22.03,31.31,28.61,13.37,6.6,29.15,9.95,46.9,9.95,14.11,0,26.04-1.11,35.46-3.3,9.36-2.16,17.18-5.12,23.26-8.79,5.66-3.4,10.33-7.16,13.9-11.19l-19.42-27.39c-2.32,2.48-5.49,5.03-9.45,7.6-4.7,3.03-10.48,5.62-17.19,7.68-6.73,2.06-14.59,3.11-23.36,3.11-9.77,0-18.3-1.64-25.33-4.88-7.09-3.27-12.58-7.86-16.32-13.65-3.72-5.77-5.82-12.39-6.23-19.7l-.08-1.46h123.78c.12-.92.22-2.41.28-4.85v-.56c.06-2.78.1-4.65.1-5.6,0-17.06-3.44-31.69-10.24-43.49-6.78-11.77-16.47-20.84-28.78-26.96ZM359.21,177.13l.14-1.51c.42-4.63,2.1-9.41,5.01-14.2,2.9-4.8,7.28-8.91,13.02-12.2,5.73-3.28,13.14-4.94,22.03-4.94s16.16,1.74,21.58,5.16c5.4,3.42,9.44,7.64,12.01,12.53,2.56,4.85,3.93,9.47,4.07,13.73l.05,1.43h-77.91Z"></path><path class="st0" d="M606.74,265.54c7.37-3.81,13.37-9.07,17.83-15.64,4.44-6.54,6.68-14.89,6.68-24.84s-2.58-18.15-7.69-24.14c-5.19-6.09-11.82-10.83-19.73-14.09-8.01-3.31-16.29-5.81-24.59-7.45-10.13-2.18-18.14-4.78-23.83-7.75-6.08-3.16-9.17-7.54-9.17-13.02s2.9-9.67,8.61-12.39c5.38-2.56,12.05-3.85,19.83-3.85,8.56,0,16.45,1.44,23.47,4.29,6.11,2.49,10.52,4.64,13.39,6.54l16.03-26.77c-2-1.3-5.41-2.84-10.17-4.6-5.72-2.13-12.83-4.07-21.14-5.76-8.28-1.68-17.43-2.53-27.19-2.53-11.97,0-23.35,1.74-33.84,5.17-10.44,3.41-19.03,8.42-25.52,14.89-6.38,6.36-9.62,14.39-9.62,23.87,0,7.46,1.56,13.92,4.63,19.2,3.07,5.32,7.19,9.81,12.23,13.38,5.1,3.6,10.66,6.53,16.51,8.69,5.9,2.18,11.77,3.85,17.44,4.98,6.34,1.29,11.93,2.78,16.62,4.44,4.82,1.69,8.69,3.87,11.5,6.47,2.95,2.74,4.45,6.32,4.45,10.63,0,5.83-3.03,10.53-9.01,13.95-5.74,3.28-13.62,4.94-23.43,4.94s-18.23-1.8-26.32-5.35c-7.09-3.11-12.51-6.05-16.14-8.77l-16.1,29.87c2.4,1.71,6.07,3.77,10.95,6.11,5.55,2.67,12.77,5.07,21.47,7.13,8.67,2.06,18.88,3.11,30.35,3.11,8.8,0,17.82-.82,26.81-2.45,8.91-1.62,17.22-4.4,24.67-8.25Z"></path><path class="st0" d="M764.4,268.74c3.69-1.62,5.56-2.59,6.5-3.16l-16.69-32.06c-.77.56-1.92,1.31-3.68,2.35-2.88,1.71-6.55,2.57-10.93,2.57-5.97,0-10.41-2.31-13.2-6.86-2.66-4.31-4.01-10.41-4.01-18.14v-57.93h38.88v-37.41h-38.88v-44.13h-47.75v44.13h-29.66v37.41h29.66v70.88c0,17.01,4.82,29.69,14.34,37.7,9.59,8.06,21.9,12.14,36.6,12.14,8.28,0,15.83-.79,22.43-2.34,6.64-1.57,12.15-3.3,16.4-5.16Z"></path><path class="st0" d="M991.59,131.44c-4.8-4.57-11.75-9.37-19.67-12.79-7.87-3.4-17.29-5.12-28.01-5.12-15.45,0-29.31,3.59-41.18,10.66-11.89,7.07-21.33,16.85-28.07,29.08-6.73,12.23-10.14,26.26-10.14,41.7s3.41,29.48,10.14,41.71c6.73,12.22,16.17,21.98,28.06,28.99,11.89,7.01,25.75,10.56,41.19,10.56,10.96,0,20.63-2.03,28.75-6.04,8.18-4.04,14.32-8.67,19.35-13.79,9.19-9.38,11.81-17.26,11.81-17.26v32.53h47.15V118.1h-47.75v29.11s-4.41-8.89-11.63-15.77ZM997.12,218.6c-3.91,6.85-9.31,12.28-16.05,16.13-6.72,3.85-14.5,5.8-23.13,5.8s-15.91-1.91-22.91-5.68c-7-3.79-12.7-9.17-16.95-16.01-4.26-6.86-6.42-14.89-6.42-23.86s2.16-17.01,6.42-23.87c4.25-6.84,9.95-12.25,16.94-16.09,6.99-3.84,14.7-5.79,22.92-5.79,8.63,0,16.42,1.98,23.14,5.9,6.74,3.93,12.14,9.39,16.05,16.23,3.91,6.84,5.89,14.79,5.89,23.62s-1.98,16.8-5.89,23.63Z"></path><path class="st0" d="M1323.31,120.78c-8.92-4.81-19.52-7.25-31.51-7.25-9.55,0-18.48,1.63-26.55,4.86-8.09,3.22-14.89,7.31-20.24,12.11-8.07,7.24-11.91,17.64-11.91,17.64l-1.32-3.29c-2.08-5.18-5.14-10.22-9.1-14.95-3.93-4.72-9.14-8.67-15.48-11.74-6.33-3.07-14.43-4.62-24.05-4.62-8.89,0-17.29,1.47-24.97,4.38-7.74,2.93-14.3,6.86-19.3,11.08-8.38,7.07-12.44,16.59-12.44,16.59v-27.48h-47.75v153.57h47.75v-82.21c0-9.42,1.56-17.41,4.65-23.74,3.11-6.38,7.47-11.28,12.96-14.57,5.48-3.29,11.69-4.96,18.45-4.96,10.6,0,18.48,3.93,23.41,11.69,4.8,7.55,7.23,18.17,7.23,31.59v82.21h44.14v-82.21c0-9.18,1.64-17.08,4.86-23.47,3.24-6.43,7.69-11.39,13.24-14.74,5.55-3.36,11.72-5.06,18.35-5.06,11.84,0,20.04,3.96,24.36,11.76,4.17,7.54,6.29,18.15,6.29,31.51v82.21h47.35v-90.02c0-15.7-2.55-28.72-7.57-38.7-5-9.92-12.02-17.37-20.87-22.16Z"></path><path class="st0" d="M844.63,76.21c-2.78-4.25-6.45-7.71-10.93-10.28-4.46-2.56-9.46-3.85-14.85-3.85-8.15,0-15.22,2.85-21,8.47-5.77,5.6-8.7,12.28-8.7,19.87s2.89,14.19,8.59,19.67c5.71,5.49,12.81,8.28,21.11,8.28s15.27-2.79,21.12-8.29c5.83-5.48,8.79-12.09,8.79-19.66,0-5.21-1.39-9.99-4.13-14.21Z"></path><path class="st0" d="M794.98,134.75v136.92h47.95v-137.08c-7.42,3.82-15.5,5.75-24.08,5.75s-16.55-1.88-23.87-5.59Z"></path><path class="st0" d="M129.32,4L14.1,231.47c35.24-23.63,74.41-40.57,110.91-47.93l48.88-96.49,54.91,108.4-3.11-.9-.05.12c-66.23-22.14-135.2,11.67-181.39,43.93-14.77,10.56-27.98,21.73-39.3,33.21h76.14c.42-.38.99-.91,1.7-1.57,7.02-6.55,28.38-26.46,60.21-39.76,71.98-30.08,102.44,1.94,124.45,41.33h47.01L178.79,4h-49.47Z"></path></svg>