<?xml version="1.0" encoding="UTF-8"?>
<svg id="Calque_1" data-name="Calque 1" xmlns="http://www.w3.org/2000/svg" viewBox="0 0 605.53 200.92">
  <defs>
    <style>
      .cls-1 {
        fill: #fff;
        stroke-width: 0px;
      }
    </style>
  </defs>
  <polygon class="cls-1" points="109.41 128.21 146.32 128.21 146.32 114.89 109.41 114.89 109.41 101.07 151.36 101.07 151.36 87.75 92.3 87.75 92.3 155.83 151.91 155.83 151.91 142.51 109.41 142.51 109.41 128.21"/>
  <polygon class="cls-1" points="188 87.75 170.78 87.75 170.78 155.83 227.04 155.83 227.04 142.22 188 142.22 188 87.75"/>
  <polygon class="cls-1" points="263.01 128.21 299.92 128.21 299.92 114.89 263.01 114.89 263.01 101.07 304.96 101.07 304.96 87.75 245.9 87.75 245.9 155.83 305.52 155.83 305.52 142.51 263.01 142.51 263.01 128.21"/>
  <polygon class="cls-1" points="376.95 129.67 340.26 87.75 324.38 87.75 324.38 155.83 341.38 155.83 341.38 112.55 379.3 155.83 393.95 155.83 393.95 87.75 376.95 87.75 376.95 129.67"/>
  <path class="cls-1" d="m448.14,156.98c-5.83,0-11.32-.93-16.33-2.76-5.02-1.84-9.43-4.39-13.1-7.59-3.69-3.22-6.62-7.09-8.72-11.51-2.11-4.44-3.17-9.3-3.17-14.44s1.07-9.98,3.18-14.36c2.1-4.36,5.03-8.18,8.72-11.37,3.68-3.17,8.09-5.68,13.11-7.45,5.01-1.77,10.49-2.66,16.31-2.66,3.59,0,6.95.19,9.99.58,3.05.38,5.97.97,8.68,1.74,2.71.77,5.31,1.73,7.75,2.86,2.44,1.13,4.81,2.49,7.05,4.04l1.28.88-6.95,14.65-1.75-1.13c-4.22-2.73-8.55-4.68-12.89-5.8-4.39-1.13-8.81-1.71-13.16-1.71-3.15,0-6.3.44-9.35,1.32-3.01.87-5.73,2.16-8.08,3.86-2.31,1.66-4.2,3.76-5.61,6.23-1.38,2.43-2.08,5.31-2.08,8.55s.7,6.15,2.09,8.61c1.41,2.52,3.31,4.66,5.63,6.39,2.36,1.75,5.08,3.09,8.07,3.98,3.04.9,6.18,1.36,9.33,1.36,4.33,0,8.67-.63,12.91-1.88,4.26-1.25,8.7-3.25,13.19-5.95l1.71-1.03,7,14.48-1.47.85c-2.07,1.19-4.21,2.35-6.36,3.44-2.21,1.12-4.67,2.13-7.32,2.99-2.66.86-5.62,1.56-8.78,2.06-3.17.51-6.84.77-10.88.77Z"/>
  <rect class="cls-1" x="495.7" y="87.75" width="17.22" height="68.08"/>
  <path class="cls-1" d="m588.82,155.83l-2.72-10.12h-42.66l-2.8,10.12h-16.89l.26-.99c1.18-4.42,2.4-8.85,3.63-13.18,1.26-4.45,2.53-8.73,3.78-12.73,1.27-4.1,2.61-8.08,3.98-11.84,1.37-3.78,2.83-7.29,4.34-10.44,3.31-7.07,7.14-12.5,11.38-16.12,4.37-3.74,8.95-5.66,13.59-5.69h0c4.72,0,9.27,1.88,13.61,5.6,4.24,3.63,8.07,9.09,11.39,16.24,1.25,2.68,2.5,5.68,3.73,8.91,1.22,3.22,2.45,6.82,3.66,10.7,1.19,3.82,2.48,8.16,3.83,12.92,1.34,4.74,2.79,10,4.33,15.64l.27,1h-16.71Zm-7.35-26.23c-.86-2.63-1.73-5.17-2.6-7.59-1.12-3.09-2.33-6.01-3.6-8.67-3.47-7.56-7.01-11.58-10.25-11.65l-.08-.61v.61c-3.14,0-6.86,4.14-10.45,11.65-1.21,2.66-2.41,5.58-3.56,8.68-.89,2.39-1.76,4.93-2.59,7.57h33.14Z"/>
  <path class="cls-1" d="m201.36,108.57S195.57,39.07,244.29,0c12.32,15.62,12.24,89.18-42.93,108.57"/>
  <path class="cls-1" d="m199.6,67.07s-5.58-41.91-39.5-58.73c-5.27,10.85,4.31,54.4,39.5,58.73"/>
  <path class="cls-1" d="m68.49,119.38c-2.58-1.6-5.56-2.92-8.87-3.92-3.23-.98-6.6-1.85-10-2.58-3.39-.73-6.74-1.37-9.96-1.91-3.16-.52-6.01-1.11-8.48-1.73-2.39-.6-4.35-1.29-5.81-2.03-1.47-.75-1.64-1.49-1.64-1.97,0-.71.28-1.28.89-1.81.76-.65,1.83-1.21,3.19-1.66,1.42-.47,3.09-.82,4.96-1.03,1.9-.21,3.9-.32,5.93-.32,5.09,0,10.04.79,14.72,2.35,4.33,1.44,8.44,3.68,12.23,6.63l8.59-12.55c-5.35-4.02-11.04-7.01-16.94-8.86-6.25-1.96-12.52-2.95-18.61-2.95-4.57,0-8.81.49-12.58,1.46-3.81.98-7.15,2.39-9.94,4.19-2.83,1.83-5.07,4.07-6.64,6.65-1.6,2.62-2.41,5.53-2.41,8.65,0,3.29.86,6.13,2.57,8.42,1.64,2.22,3.83,4.1,6.5,5.6,2.61,1.47,5.62,2.67,8.95,3.58,3.28.89,6.64,1.67,10,2.3,3.36.63,6.71,1.21,9.94,1.71,3.2.5,6.07,1.09,8.53,1.77,2.4.66,4.34,1.46,5.78,2.36,1.19.75,1.75,1.64,1.75,2.79,0,.84-.34,1.65-1.03,2.47-.78.91-1.87,1.74-3.27,2.45-1.45.74-3.25,1.36-5.35,1.84-2.11.48-4.47.73-7.02.73-3.08,0-6.26-.23-9.44-.7-3.19-.46-6.34-1.12-9.37-1.96-3.03-.84-5.93-1.87-8.64-3.07-2.7-1.19-5.14-2.57-7.27-4.09l-1.02-.73-8.73,12.47,1.02.71c3.15,2.18,6.6,4.09,10.26,5.66,3.64,1.57,7.41,2.88,11.21,3.9,3.78,1.02,7.6,1.78,11.35,2.26,3.73.48,7.34.72,10.73.72,4.46,0,8.72-.59,12.67-1.76,3.96-1.17,7.48-2.81,10.45-4.86,3-2.08,5.4-4.56,7.13-7.39,1.76-2.87,2.65-6.01,2.65-9.32s-.86-6.24-2.56-8.59c-1.64-2.27-3.8-4.24-6.42-5.87Z"/>
  <g>
    <path class="cls-1" d="m391.19,180.37c1.26,0,2.33.18,3.21.55.88.37,1.6.85,2.15,1.45.55.6.96,1.29,1.21,2.06.25.77.38,1.57.38,2.39s-.13,1.6-.38,2.38c-.25.78-.66,1.47-1.21,2.07s-1.27,1.08-2.15,1.45c-.88.37-1.95.55-3.21.55h-4.64v7.21h-4.42v-20.1h9.06Zm-1.21,9.46c.51,0,.99-.04,1.47-.11.47-.08.88-.22,1.24-.44.36-.22.64-.52.86-.92.21-.39.32-.91.32-1.55s-.11-1.16-.32-1.55c-.22-.39-.5-.7-.86-.92s-.77-.36-1.24-.44c-.47-.08-.96-.11-1.47-.11h-3.43v6.02h3.43Z"/>
    <path class="cls-1" d="m415.07,180.37l7.52,20.1h-4.59l-1.52-4.48h-7.52l-1.58,4.48h-4.45l7.6-20.1h4.53Zm.25,12.33l-2.53-7.38h-.06l-2.62,7.38h5.21Z"/>
    <path class="cls-1" d="m426.33,184.08v-3.72h16.47v3.72h-6.02v16.39h-4.42v-16.39h-6.02Z"/>
    <path class="cls-1" d="m461.47,180.37c.9,0,1.71.15,2.44.44.72.29,1.34.69,1.86,1.2.52.51.91,1.09,1.18,1.76s.41,1.38.41,2.15c0,1.18-.25,2.21-.75,3.07s-1.31,1.52-2.43,1.97v.06c.54.15.99.38,1.35.69s.65.68.87,1.1c.23.42.39.89.49,1.39.1.51.17,1.01.21,1.52.02.32.04.7.06,1.13.02.43.05.87.1,1.32.05.45.12.88.23,1.28.1.4.26.75.46,1.03h-4.42c-.25-.64-.39-1.4-.45-2.28-.06-.88-.14-1.73-.25-2.53-.15-1.05-.47-1.82-.96-2.31s-1.29-.73-2.39-.73h-4.42v7.85h-4.42v-20.1h10.84Zm-1.58,9.09c1.01,0,1.78-.23,2.28-.68s.76-1.18.76-2.2-.25-1.69-.76-2.13c-.51-.44-1.27-.66-2.28-.66h-4.84v5.66h4.84Z"/>
    <path class="cls-1" d="m481.05,180.37v20.1h-4.42v-20.1h4.42Z"/>
    <path class="cls-1" d="m496.93,180.37l4.7,13.82h.06l4.45-13.82h6.22v20.1h-4.14v-14.24h-.06l-4.93,14.24h-3.41l-4.93-14.1h-.06v14.1h-4.14v-20.1h6.22Z"/>
    <path class="cls-1" d="m521.74,186.32c.45-1.28,1.1-2.41,1.94-3.36.85-.96,1.88-1.71,3.11-2.25,1.23-.54,2.61-.82,4.15-.82s2.95.27,4.17.82,2.25,1.29,3.1,2.25c.85.96,1.49,2.08,1.94,3.36.45,1.29.68,2.68.68,4.18s-.23,2.83-.68,4.1-1.1,2.37-1.94,3.31c-.84.94-1.88,1.67-3.1,2.21s-2.61.8-4.17.8-2.92-.27-4.15-.8c-1.23-.54-2.27-1.27-3.11-2.21-.84-.94-1.49-2.04-1.94-3.31-.45-1.27-.68-2.63-.68-4.1s.23-2.89.68-4.18Zm4.04,6.64c.2.8.51,1.52.94,2.15.43.64.99,1.15,1.69,1.54.69.38,1.54.58,2.53.58s1.84-.19,2.53-.58c.69-.39,1.26-.9,1.69-1.54s.75-1.36.94-2.15c.2-.8.3-1.62.3-2.46s-.1-1.74-.3-2.56c-.2-.83-.51-1.56-.94-2.21-.43-.65-.99-1.16-1.69-1.55-.7-.38-1.54-.58-2.53-.58s-1.84.19-2.53.58c-.7.39-1.26.9-1.69,1.55-.43.65-.75,1.38-.94,2.21-.2.83-.3,1.68-.3,2.56s.1,1.67.3,2.46Z"/>
    <path class="cls-1" d="m553.98,180.37v20.1h-4.42v-20.1h4.42Z"/>
    <path class="cls-1" d="m568.03,180.37l8.39,13.49h.06v-13.49h4.14v20.1h-4.42l-8.36-13.46h-.06v13.46h-4.14v-20.1h4.39Z"/>
    <path class="cls-1" d="m605.3,180.37v3.72h-10.61v4.31h9.74v3.43h-9.74v4.93h10.84v3.72h-15.26v-20.1h15.03Z"/>
  </g>
</svg>