<svg width="80" height="56" viewBox="0 0 80 56" fill="none" xmlns="http://www.w3.org/2000/svg">
<path d="M54.4407 16.3792C46.354 16.4797 36.1945 18.5462 31.7265 22.9357C29.4652 25.1581 28.6814 27.8313 29.3972 30.8811C30.1905 34.2642 32.9464 36.1441 35.2614 36.7762C36.0921 37.0086 36.7078 36.9965 36.8692 36.9888C36.749 36.8758 36.3411 36.491 36.3411 36.491C36.3411 36.49 35.846 35.8473 35.846 35.8473C35.4778 35.2754 35.1857 34.6053 34.9765 33.8573C34.8468 33.3969 34.7831 32.9366 34.7831 32.482C34.7831 31.1447 35.3346 29.8521 36.399 28.7438C38.9327 26.1063 44.3507 24.7738 52.5021 24.7844C52.5055 24.7844 57.3202 24.8734 57.3202 24.8734C57.3259 24.8738 57.4341 24.8604 57.4341 24.8604C57.4447 24.8484 57.4887 24.7319 57.4887 24.7319C57.641 24.2966 58.1581 22.713 58.375 20.6162C58.4975 19.4285 58.4889 18.0931 58.3486 16.6481L58.3003 16.5167L58.2265 16.4917C57.0947 16.3984 55.8556 16.3618 54.4407 16.3792Z" fill="white"/>
<path d="M38.2616 0.216275C38.2611 0.216275 38.2611 0.216275 38.2616 0.216275C37.1221 0.319218 35.8542 0.549636 35.0302 0.801701C35.0298 0.801701 34.9637 0.819981 34.9637 0.819981L34.8876 0.846438C34.8876 0.8474 34.8445 0.934949 34.8445 0.934949C34.2374 3.06451 31.3038 5.38361 29.8943 6.49818L29.3054 6.97248L28.8045 7.39772C27.6684 8.36028 26.5959 9.26993 25.6019 10.3489C24.8086 11.2109 23.7002 12.5232 22.9284 13.8754C22.2863 14.9991 21.8616 16.2315 21.6294 17.6429C21.5159 18.3332 21.457 19.036 21.457 19.6854C21.457 19.9476 21.4671 20.2011 21.4862 20.4411L21.5087 20.6749C21.5782 21.3354 21.6873 21.9088 21.8176 22.2902C21.8176 22.2907 21.818 22.2922 21.8185 22.2922C21.8348 22.232 21.8563 22.1512 21.8563 22.1512L22.0598 21.4157L22.1192 21.217L22.383 20.3584C22.9509 18.7228 23.8112 17.2831 25.0164 15.9535C27.5769 13.1284 30.261 11.5837 32.8565 10.0896C34.8732 8.92839 36.7773 7.83258 38.5589 6.19704C40.9495 4.00206 41.8247 1.93166 42.3466 0.69491C42.3466 0.69491 42.5075 0.319218 42.5099 0.313927C42.5018 0.337017 42.3931 0.309116 42.3931 0.309116C41.3436 0.123916 39.6075 0.0844701 38.2616 0.216275Z" fill="white"/>
<path d="M43.0908 9.21804C38.0654 10.197 33.7127 11.8695 30.151 14.1891C25.7294 17.0696 23.436 19.9813 22.4823 23.9239C22.4602 24.0148 22.4492 24.1202 22.4492 24.238C22.4492 24.8398 22.7303 25.7711 23.2392 26.826C23.5126 27.3927 23.8018 27.8314 24.0809 28.2571C24.0809 28.2571 24.1082 28.2985 24.1322 28.336C24.1417 28.2682 24.1523 28.1999 24.1523 28.1999C24.2198 27.8314 24.3213 27.2744 24.5928 26.5393C25.1434 25.05 26.4342 21.5615 32.3635 18.6902C35.6815 17.0835 39.5607 16.0334 44.2236 15.4802C49.7192 14.8284 54.4932 14.6879 58.0353 15.0742C58.0511 15.0761 58.0764 15.0785 58.0999 15.0805C58.098 15.067 58.0951 15.0506 58.0951 15.0506C57.7681 13.3155 57.0107 11.2471 56.1661 9.77941C56.1603 9.76979 55.5963 8.8005 55.5963 8.8005L55.4441 8.55469C55.4441 8.5542 55.3928 8.47579 55.3928 8.47579L55.343 8.43106C55.343 8.43154 55.1635 8.39402 55.1635 8.39402C54.6933 8.33629 53.5581 8.27953 52.0475 8.27953C49.4989 8.2473 46.404 8.572 43.0908 9.21804ZM58.1253 15.0819C58.142 15.0834 58.1617 15.0848 58.1617 15.0848C58.1416 15.0834 58.1315 15.0819 58.1253 15.0819Z" fill="white"/>
<path d="M0.735685 45.6608C0.735685 46.5358 1.02296 47.2419 1.61426 47.8187C2.22664 48.4344 2.79209 48.7057 4.48413 49.4691C6.69183 50.4596 7.7533 51.0065 7.7533 52.6046C7.7533 54.1415 6.52617 55.2575 4.8346 55.2575C3.68455 55.2575 2.59387 54.9265 1.84169 54.3474C1.1958 53.8288 0.776382 53.0856 0.592527 52.1365C0.589176 52.1197 0.528369 51.9046 0.528369 51.9046C0.163531 51.9037 0.136719 52.1279 0.136719 52.1957C0.136719 52.7782 0.330151 54.5812 0.456072 55.4653C0.466127 55.5423 0.486714 55.7005 0.510654 55.7246C0.510175 55.7246 0.598751 55.7342 0.598751 55.7342L0.762976 55.6664L1.11201 55.5403L1.73492 55.6144C2.36884 55.7063 3.43127 55.8626 4.62058 55.8626C6.73061 55.8626 7.67478 55.36 8.26178 54.9232C9.09822 54.305 9.59712 53.2857 9.59712 52.1957C9.59712 49.8684 7.66473 49.0189 5.9588 48.2704C5.9339 48.2598 5.86783 48.23 5.86783 48.23C3.39057 47.1356 2.36501 46.682 2.36501 45.0157C2.36501 43.5317 3.43462 42.5354 5.02756 42.5354C5.87597 42.5354 6.64251 42.7495 7.18307 43.1415C7.93285 43.6442 8.17464 44.373 8.38866 45.0157L8.50309 45.311C8.65343 45.3082 8.84925 45.2639 8.84925 45.1662L8.76068 44.1984L8.74296 44.019C8.68838 43.5644 8.70897 42.7331 8.71759 42.3786L8.72046 42.2425L8.71088 42.154C8.70705 42.1641 8.5366 42.1795 8.5366 42.1795C8.56916 42.1636 8.2795 42.2723 8.2795 42.2723L7.85864 42.2256L7.15146 42.1424C6.54053 42.0765 5.82474 42.0352 5.28419 42.0352C2.47848 42.0366 0.735685 43.4249 0.735685 45.6608Z" fill="white"/>
<path d="M21.7572 46.8086C21.715 46.8086 21.7026 46.9505 21.7026 46.9505C21.7026 46.9505 21.7102 47.0698 21.7107 47.0746C21.7131 47.0616 21.8654 47.0708 21.8654 47.0708C22.2115 47.0857 23.0082 47.1208 23.0082 47.8751C23.0082 48.295 22.7095 49.0305 22.4696 49.6217L22.4418 49.6905C22.4414 49.6915 20.62 53.7596 20.62 53.7596C20.5971 53.8101 20.5463 53.8424 20.4903 53.8395C20.4343 53.8371 20.3854 53.8 20.3672 53.7476C20.0699 52.8981 18.5407 48.2965 18.5407 47.8549C18.5407 47.2122 19.0218 47.1809 19.6883 47.1376C19.6883 47.1371 19.8382 47.1015 19.8382 47.1015C19.8377 47.1015 19.8377 47.0977 19.8377 47.0919C19.8377 47.0597 19.8458 46.9519 19.8458 46.9519L19.8334 46.8192C19.8334 46.8216 19.7477 46.81 19.7477 46.81L17.822 46.8317L15.768 46.81C15.6526 46.81 15.6483 46.81 15.6483 46.9736L15.6593 47.0674C16.0936 47.1386 16.264 47.166 16.49 47.4181C16.7016 47.7009 16.9717 48.3696 17.393 49.4365C17.4064 49.4721 17.4059 49.5116 17.3892 49.5462L15.3557 53.8048C15.3323 53.8544 15.2825 53.8847 15.2274 53.8828C15.1724 53.8808 15.125 53.8462 15.1053 53.7947L14.0491 51.0764L13.7145 50.2043C13.713 50.2004 13.6369 49.9868 13.6369 49.9868C13.3199 49.0974 13.0202 48.258 13.0202 47.8972C13.0202 47.4147 13.3195 47.1814 14.0218 47.115C14.0233 47.115 14.1717 47.0914 14.1736 47.0914C14.1712 47.0914 14.1703 47.0799 14.1703 47.0616C14.1703 47.0198 14.175 46.9505 14.175 46.9505C14.175 46.9505 14.1631 46.8452 14.1583 46.8096C14.0735 46.8105 12.1086 46.8302 12.1086 46.8302L10.4185 46.8086L10.3275 46.8201C10.3275 46.8201 10.328 46.8216 10.328 46.8245C10.328 46.8403 10.3203 46.9082 10.3203 46.9082C10.3203 47.0698 10.3203 47.0698 10.4927 47.1573C10.7412 47.2689 10.936 47.5518 11.2908 48.2888C12.0799 50.0032 13.3051 53.242 14.0568 55.4187C14.0668 55.4461 14.1894 55.7415 14.1918 55.7478C14.1966 55.729 14.8923 55.6294 14.8923 55.6294C14.8923 55.6294 14.9607 55.6174 14.9622 55.6169C14.9622 55.6169 14.9617 55.6169 14.9617 55.616C14.9617 55.6015 15.0187 55.4611 15.0187 55.4611C15.7096 53.8919 16.0399 53.1934 17.4643 50.4154C17.4892 50.3659 17.5409 50.3375 17.595 50.3413C17.6491 50.3447 17.6965 50.3798 17.7147 50.4318C18.5229 52.7066 19.075 54.4879 19.301 55.322C19.3436 55.4789 19.402 55.6939 19.4336 55.729C19.4518 55.7165 19.9866 55.652 19.9866 55.652C20.1657 55.6313 20.248 55.5755 20.3036 55.4365C20.3083 55.4259 20.8388 54.2099 20.8388 54.2099C20.8412 54.2041 21.0232 53.8111 21.0232 53.8111C21.6825 52.3805 22.4299 50.7599 22.9201 49.8334C23.556 48.6327 24.2742 47.3729 24.7793 47.1294C24.9014 47.0592 24.9153 47.0515 24.9153 46.9106L24.9014 46.8173C24.8597 46.811 24.3589 46.8197 24.3584 46.8201L23.4478 46.8326L22.2039 46.8187L21.7572 46.8086Z" fill="white"/>
<path d="M27.2006 42.4143C27.2006 42.8342 27.7149 43.3509 28.1333 43.3509C28.6188 43.3509 29.1517 42.8265 29.1517 42.3493C29.1517 41.9188 28.6255 41.3906 28.1975 41.3906C27.7862 41.3906 27.2006 41.9198 27.2006 42.4143ZM28.3019 46.6431C28.3004 46.6441 27.0273 47.2276 27.0273 47.2276L26.0472 47.6788C26.0482 47.6783 26.0487 47.6778 26.0487 47.6778C26.0487 47.6788 25.9879 47.711 25.9879 47.711C25.8466 47.786 25.8323 47.7937 25.8323 47.9174C25.8323 47.9174 25.8394 48.0304 25.8394 48.0314C25.8409 48.0246 26.0674 48.0795 26.0674 48.0795C27.2231 48.2252 27.2231 48.6308 27.2231 50.8835C27.2231 52.1625 27.2231 53.915 27.0455 54.4725C26.8813 54.9906 26.5854 55.2022 25.827 55.3398C25.5977 55.3898 25.5977 55.3898 25.5977 55.5491L25.6077 55.6549C25.6532 55.6477 26.4724 55.6318 26.4724 55.6318L28.0921 55.6044L29.8771 55.6352L30.4037 55.6472L30.4847 55.6376C30.4847 55.6376 30.4847 55.6376 30.4847 55.6366C30.4847 55.6227 30.5024 55.4836 30.5024 55.4836L30.489 55.3542C30.4895 55.3547 30.2874 55.3191 30.2874 55.3191C29.4581 55.2768 28.941 55.2143 28.8142 54.497C28.7414 54.1747 28.705 53.0193 28.705 50.9686L28.7682 47.8697C28.7692 47.8433 28.8549 46.5527 28.8549 46.5527C28.8477 46.519 28.7778 46.5065 28.7778 46.5065C28.6385 46.507 28.4843 46.5507 28.3019 46.6431Z" fill="white"/>
<path d="M31.9317 49.0568C31.9317 50.5197 33.2082 51.1152 34.3347 51.6405C35.6883 52.2784 36.575 52.7738 36.575 53.8071C36.575 54.5359 36.0962 55.3854 34.7479 55.3854C34.3745 55.3854 32.4828 55.2858 31.9628 53.327L31.8747 53.0572C31.6813 53.0639 31.5898 53.0889 31.5898 53.1409L31.6229 53.6104L31.6746 54.431L31.6617 55.1252L31.653 55.484L31.676 55.6264C31.687 55.6264 31.8312 55.6048 31.8312 55.6048L31.9868 55.5831L32.2075 55.6115C32.2075 55.6115 32.511 55.6586 32.5115 55.6591C32.919 55.7274 33.5993 55.8419 34.4473 55.8419C35.0601 55.8419 38.1186 55.7221 38.1186 53.3569C38.1186 51.8219 36.7153 51.1681 35.5877 50.6438C33.9498 49.8746 33.2833 49.4701 33.2833 48.5416C33.2833 48.2997 33.3609 47.0918 34.8968 47.0918C35.9344 47.0918 36.7397 47.6556 37.2252 48.7206C37.2295 48.7307 37.3167 48.9193 37.3167 48.9193C37.3171 48.9193 37.3176 48.9193 37.3181 48.9193C37.5709 48.9193 37.6121 48.8909 37.6178 48.8861C37.6178 48.8813 37.6269 48.7995 37.6269 48.7995L37.5254 47.5127L37.477 47.0052C37.4732 46.9763 37.4335 46.7478 37.4335 46.7478C37.421 46.7656 37.2769 46.7863 37.2769 46.7863L37.1218 46.808L36.7756 46.7685C36.4132 46.719 35.807 46.6367 35.2813 46.6367C32.0931 46.6362 31.9317 48.6523 31.9317 49.0568Z" fill="white"/>
<path d="M39.8892 49.0573C39.8892 50.5202 41.1661 51.1157 42.2918 51.641C43.6453 52.2788 44.5325 52.7743 44.5325 53.8076C44.5325 54.5364 44.0547 55.3859 42.7055 55.3859C42.332 55.3859 40.4403 55.2863 39.9199 53.3275L39.8318 53.0576C39.6378 53.0644 39.5469 53.0894 39.5469 53.1413L39.5799 53.6108L39.6316 54.4315L39.6192 55.1256L39.6106 55.4845L39.6335 55.6264C39.6445 55.6264 39.7887 55.6047 39.7887 55.6047L39.9443 55.5831L40.165 55.6115L40.47 55.6591C40.8774 55.7274 41.5573 55.8419 42.4048 55.8419C43.0171 55.8419 46.0761 55.7221 46.0761 53.3568C46.0761 51.8219 44.6723 51.1681 43.5462 50.6438C41.9073 49.8746 41.2413 49.47 41.2413 48.5416C41.2413 48.2997 41.3189 47.0918 42.8544 47.0918C43.8924 47.0918 44.6967 47.6556 45.1827 48.7206C45.1875 48.7307 45.2737 48.9193 45.2737 48.9193C45.2746 48.9193 45.2756 48.9193 45.2756 48.9193C45.5289 48.9193 45.5691 48.8909 45.5758 48.8861C45.5758 48.8813 45.5849 48.7995 45.5849 48.7995L45.4829 47.5127L45.4346 47.0052C45.4307 46.9763 45.3905 46.7478 45.3905 46.7478C45.3785 46.7656 45.2344 46.7863 45.2344 46.7863L45.0793 46.808L44.7331 46.7685C44.3702 46.719 43.7645 46.6367 43.2388 46.6367C40.0501 46.6367 39.8892 48.6528 39.8892 49.0573Z" fill="white"/>
<path d="M52.3276 42.2656L50.7303 42.3151L48.2057 42.2285C48.2057 42.2285 48.1142 42.2353 48.1123 42.2353C48.1152 42.2353 48.1161 42.2468 48.1161 42.2656C48.1161 42.3161 48.1075 42.4152 48.1075 42.4152L48.1123 42.4811C48.1458 42.509 48.3818 42.5393 48.5236 42.558C49.732 42.7485 49.8402 43.2767 49.8402 44.7362V47.8528C49.8402 49.6269 49.8402 52.3097 49.7114 53.6489C49.631 54.3512 49.5319 55.2224 48.1525 55.3421C48.1487 55.3431 47.9222 55.3845 47.9212 55.3845C47.9222 55.3845 47.9222 55.3893 47.9222 55.3965C47.9222 55.4355 47.9141 55.5485 47.9141 55.5485L47.9289 55.6789C47.9289 55.6774 48.0338 55.6904 48.0338 55.6904L48.2842 55.6789C48.7725 55.65 49.914 55.5836 52.8475 55.5836C55.8486 55.5836 56.822 55.6447 57.2888 55.6741L57.6608 55.6909C57.7522 55.6909 57.7824 55.6317 57.904 55.2031C58.367 53.5204 58.4867 52.5454 58.4867 52.2596C58.4867 52.2135 58.4867 52.161 58.1535 52.161C58.1276 52.1856 58.0817 52.3501 58.0405 52.4939C57.8327 53.1803 57.4549 54.0332 56.7688 54.4421C55.9879 54.913 54.4788 54.913 53.1477 54.913C52.3079 54.913 51.8004 54.9131 51.6649 54.2656C51.5122 53.6022 51.4916 51.2826 51.4916 49.3368C51.4916 48.2228 51.505 44.5197 51.6865 43.6543C51.8387 42.813 52.3596 42.6196 53.2674 42.5566C53.2602 42.5575 53.5116 42.508 53.5116 42.508C53.5106 42.509 53.5245 42.3286 53.5245 42.3286C53.5245 42.2434 53.5106 42.2295 53.4264 42.2295L52.3276 42.2656Z" fill="white"/>
<path d="M61.1577 42.4143C61.1577 42.8342 61.6719 43.3509 62.0899 43.3509C62.5754 43.3509 63.1083 42.8265 63.1083 42.3493C63.1083 41.9188 62.5826 41.3906 62.1545 41.3906C61.7428 41.3906 61.1577 41.9198 61.1577 42.4143ZM62.2584 46.6431C62.2575 46.6441 60.98 47.2295 60.98 47.2295L60.0038 47.6793C60.0048 47.6788 60.0062 47.6783 60.0062 47.6783C60.0062 47.6793 59.9439 47.7115 59.9439 47.7115C59.8027 47.7865 59.7883 47.7942 59.7883 47.9179C59.7883 47.9179 59.796 48.0309 59.796 48.0319C59.7979 48.0251 60.0234 48.08 60.0234 48.08C61.1792 48.2257 61.1792 48.6312 61.1792 50.8839C61.1792 52.163 61.1792 53.9155 61.0016 54.473C60.8378 54.9911 60.5415 55.2027 59.784 55.3403C59.5547 55.3903 59.5547 55.3903 59.5547 55.5495L59.5647 55.6554C59.6102 55.6482 60.4294 55.6323 60.4294 55.6323L62.0492 55.6049L63.8346 55.6357L64.3608 55.6477L64.4422 55.6381C64.4422 55.6381 64.4422 55.6376 64.4422 55.6371C64.4422 55.6231 64.4599 55.4841 64.4599 55.4841L64.446 55.3547C64.446 55.3552 64.2449 55.3196 64.2449 55.3196C63.4166 55.2773 62.8981 55.2147 62.7712 54.4975C62.6984 54.1757 62.6625 53.0198 62.6625 50.9691L62.7262 47.8548C62.7262 47.8438 62.8124 46.5527 62.8124 46.5527C62.8047 46.5185 62.7348 46.5065 62.7348 46.5065C62.596 46.507 62.4404 46.5507 62.2584 46.6431Z" fill="white"/>
<path d="M68.0621 42.8633C67.1242 44.0769 67.1045 44.9116 67.0634 46.7385C67.0605 46.7915 67.0303 46.8396 66.981 46.8612L65.8262 47.3769C65.8094 47.387 65.8008 47.5948 65.8008 47.5948L65.8037 47.703L66.9054 47.6727C66.9408 47.6727 66.9762 47.6867 67.0016 47.7122C67.027 47.7386 67.0418 47.7733 67.0409 47.8098L66.9987 53.6612C66.9566 54.8715 66.8091 55.1947 65.7898 55.3405C65.7931 55.34 65.6371 55.3775 65.6371 55.3775C65.6371 55.3775 65.6371 55.3814 65.6371 55.3872C65.6371 55.4194 65.6289 55.5271 65.6289 55.5271C65.6289 55.5271 65.6485 55.6806 65.6485 55.683C65.6505 55.6681 66.2609 55.6527 66.2609 55.6527L67.5886 55.6253L69.7321 55.6556L70.4786 55.6676C70.7692 55.6676 70.7692 55.6676 70.7692 55.4608L70.7587 55.3217C70.7572 55.3256 70.5954 55.2972 70.5954 55.2972C69.1073 55.2977 68.6324 55.0894 68.5873 53.7891C68.5873 53.7863 68.5428 47.7862 68.5428 47.7862C68.5428 47.7497 68.5567 47.7151 68.583 47.6886C68.6099 47.6621 68.6443 47.6482 68.6802 47.6482H71.5894C71.7316 47.6482 71.7316 47.6482 71.7316 47.2489V47.1296L71.7191 46.8362L68.6802 46.8487C68.6051 46.8487 68.5428 46.7876 68.5428 46.7116C68.5428 43.3809 68.6525 41.78 71.0991 41.78C72.2242 41.78 72.7758 42.1427 73.0928 42.415C73.0904 42.414 73.2622 42.5617 73.2622 42.5617C73.37 42.6574 73.472 42.7474 73.5174 42.7474C73.6606 42.7401 74.5349 42.3457 74.5349 41.9604C74.5349 41.4548 73.685 40.7227 72.1476 40.7227C70.3407 40.7246 68.8526 41.8291 68.0621 42.8633Z" fill="white"/>
<path d="M72.457 51.7011C72.457 52.6728 72.7151 55.8409 76.0417 55.8409C77.5715 55.8409 78.9441 55.1179 79.6542 54.4988C79.8438 54.3502 79.8634 54.2987 79.8634 54.216C79.8625 54.2145 79.8337 54.0404 79.8337 54.0404C79.8337 54.0404 79.8036 53.9663 79.8036 53.9692C78.6803 54.7884 77.5226 54.8909 77.0682 54.8909C74.4809 54.8909 74.0892 52.2889 74.0423 51.17C74.0423 51.1676 74.0423 51.1657 74.0423 51.1638C74.0423 51.0979 74.0892 51.0416 74.1534 51.0291C75.6908 50.7169 77.7204 50.3176 79.8194 49.9867C79.8194 49.9766 79.8213 49.9727 79.8213 49.9593C79.8213 49.8039 79.7715 49.4388 79.6518 48.9621C79.1869 47.2472 77.7271 46.6367 76.6191 46.6367C74.5733 46.6367 72.457 48.5315 72.457 51.7011ZM74.0696 50.6019C74.0394 50.5755 74.0217 50.536 74.0217 50.4956C74.0442 48.8221 74.6705 47.1351 76.0192 47.1351C77.1851 47.1351 78.0622 48.4315 78.0622 49.2714C78.0622 49.6115 77.8247 49.7996 77.1889 49.9636C75.6386 50.3537 75.0904 50.4802 74.1826 50.6327C74.1419 50.6404 74.1007 50.6284 74.0696 50.6019Z" fill="white"/>
<path d="M58.5135 20.6292C58.6418 19.3876 58.6231 18.034 58.4867 16.6342C58.4781 16.5452 58.4565 16.4745 58.3995 16.4182C58.3545 16.373 58.3062 16.359 58.2406 16.3533C57.1006 16.2594 55.8533 16.2229 54.44 16.2407C46.413 16.3407 36.1674 18.3808 31.6314 22.8367C29.5046 24.9273 28.4848 27.5884 29.2652 30.9119C30.1519 34.6919 33.2808 36.3775 35.2261 36.909C36.2177 37.1861 36.9622 37.1231 36.9622 37.1231C36.9622 37.1231 37.1044 37.1356 37.1183 37.0649C37.1279 37.0202 37.0043 36.9268 37.0043 36.9268C37.0043 36.9268 36.6472 36.619 36.4437 36.3967C36.2359 36.1682 36.1301 36.0249 35.9611 35.7704C35.6666 35.3115 35.3525 34.6847 35.1098 33.8193C34.5893 31.9692 35.1634 30.2284 36.4983 28.8386C38.7701 26.4734 43.7658 24.9095 52.5028 24.9201L57.3184 25.0091C57.3184 25.0091 57.4683 25.0192 57.5262 24.9605C57.5693 24.9177 57.5674 24.9239 57.6196 24.7763C57.9059 23.9628 58.3258 22.4423 58.5135 20.6292Z" fill="#D82034"/>
<path d="M42.4154 0.173376C41.3711 -0.0118242 39.6341 -0.0570422 38.2489 0.0786111C37.1295 0.180111 35.8353 0.41101 34.9908 0.669809C34.9017 0.696748 34.8371 0.703001 34.7916 0.748219C34.7523 0.788145 34.7298 0.841059 34.714 0.895898C34.0155 3.34728 30.1622 6.06227 29.2175 6.86705C27.8707 8.01481 26.645 9.01393 25.5021 10.255C24.5244 11.3172 23.5055 12.5881 22.8099 13.8065C22.0811 15.0837 21.701 16.3676 21.4946 17.6202C21.3194 18.6838 21.2873 19.6767 21.3496 20.4521H21.3491C21.35 20.4584 21.3639 20.62 21.3725 20.6917C21.4884 21.8009 21.6751 22.295 21.6933 22.3522C21.724 22.4479 21.7541 22.5523 21.8307 22.5523C21.9035 22.5523 21.9241 22.421 21.9485 22.3354C21.9729 22.2507 22.0869 21.8053 22.1908 21.456C22.3143 21.0433 22.3823 20.8076 22.5125 20.4021C22.9008 19.2856 23.6085 17.7121 25.1167 16.0477C29.624 11.0752 34.5316 10.0823 38.6506 6.30038C41.2605 3.9048 42.073 1.67278 42.5968 0.458632C42.6313 0.379261 42.6715 0.319131 42.6303 0.260925C42.5939 0.20753 42.5145 0.190694 42.4154 0.173376Z" fill="#D82034"/>
<path d="M58.2316 15.0221C57.9194 13.362 57.1788 11.2565 56.2858 9.70896C56.1182 9.35396 55.7649 8.81279 55.5619 8.48087C55.4752 8.33944 55.492 8.38899 55.4422 8.33511C55.3704 8.25767 55.1654 8.25478 55.1654 8.25478C54.6531 8.19128 53.4624 8.14078 52.0476 8.14078H52.0432C49.5602 8.10999 46.4764 8.41689 43.065 9.08169C38.0128 10.0659 33.6299 11.7577 30.0773 14.0725C26.2518 16.5652 23.4408 19.3827 22.3497 23.89C22.1783 24.5991 22.6283 25.8729 23.1167 26.8855C23.4231 27.518 23.7468 27.9947 24.0518 28.4599C24.0929 28.5224 24.147 28.5898 24.194 28.5619C24.2265 28.5436 24.2347 28.509 24.25 28.431C24.3199 28.09 24.3984 27.4651 24.723 26.5862C25.3138 24.9882 26.6659 21.6022 32.4248 18.8131C36.2619 16.9549 40.4297 16.0678 44.2414 15.6161C50.2784 14.8999 54.8585 14.8643 58.0214 15.2101C58.1057 15.2198 58.2048 15.24 58.2307 15.1947C58.256 15.1495 58.245 15.0971 58.2316 15.0221Z" fill="#D82034"/>
<path d="M54.9673 17.791H53.2887V19.7195H51.3711V21.4046H53.2887V23.3326H54.9673V21.4046H56.8872V19.7195H54.9673V17.791Z" fill="white"/>
<path d="M8.34435 55.0323C7.68122 55.5268 6.67529 55.9996 4.62128 55.9996C2.88806 55.9996 1.45504 55.6773 1.11223 55.6773C0.855597 55.6773 0.834051 55.8707 0.598966 55.8707C0.384947 55.8707 0.363401 55.8058 0.320789 55.4835C0.191995 54.5806 0 52.7743 0 52.1941C0 52.0008 0.128795 51.7636 0.513263 51.7636C0.663124 51.7636 0.68419 51.8935 0.727281 52.108C0.898209 52.9893 1.28363 53.721 1.92521 54.2362C2.65345 54.7951 3.70105 55.1174 4.8353 55.1174C6.41866 55.1174 7.61707 54.1068 7.61707 52.6021C7.61707 51.0979 6.63268 50.5822 4.42928 49.5927C2.7607 48.8408 2.16126 48.5604 1.5192 47.9167C0.770372 47.1855 0.599444 46.3466 0.599444 45.6597C0.599444 43.4661 2.22541 41.8984 5.28536 41.8984C5.84123 41.8984 6.56899 41.9408 7.16844 42.0057C7.74634 42.0702 8.21699 42.1356 8.28115 42.1356C8.36685 42.1356 8.43101 42.0918 8.49469 42.049C8.55932 42.0274 8.58087 42.0274 8.70871 42.0274C8.8375 42.0274 8.85857 42.1139 8.85857 42.2414C8.85857 42.3713 8.81596 43.4676 8.88011 44.0049C8.92273 44.435 8.98688 45.0574 8.98688 45.1652C8.98688 45.3802 8.70871 45.4451 8.51671 45.4451C8.38792 45.4451 8.36685 45.3802 8.26008 45.0574C8.04606 44.4128 7.81098 43.7245 7.10476 43.2516C6.56947 42.8648 5.82017 42.6715 5.02921 42.6715C3.59571 42.6715 2.50455 43.5527 2.50455 45.0146C2.50455 46.6054 3.51097 47.035 5.99205 48.1313C7.70373 48.8836 9.73667 49.7649 9.73667 52.1941C9.73571 53.5059 9.07211 54.495 8.34435 55.0323Z" fill="black"/>
<path d="M24.8403 47.251C24.3481 47.4867 23.5777 48.8846 23.0429 49.8948C22.5081 50.905 21.652 52.7748 20.9674 54.2583C20.8175 54.6244 20.4967 55.3546 20.4326 55.484C20.3469 55.6986 20.1975 55.763 20.0041 55.7847L19.4697 55.8496C19.3199 55.8713 19.2988 55.828 19.1705 55.3556C18.9134 54.4094 18.3359 52.5819 17.5866 50.4754C16.1316 53.3121 15.8108 54.0005 15.1472 55.5057C15.0615 55.7414 15.0615 55.7414 14.9121 55.763L14.1638 55.8713C14.0776 55.8713 14.0565 55.8063 13.9287 55.4624C13.2004 53.3554 11.9604 50.0661 11.1685 48.3463C10.8472 47.6801 10.6552 47.3795 10.4618 47.2938C10.2051 47.164 10.1836 47.164 10.1836 46.9066C10.1836 46.7349 10.2267 46.6699 10.4192 46.6699C10.8683 46.6699 11.767 46.6916 12.1093 46.6916C12.8576 46.6916 13.5428 46.6699 14.2064 46.6699C14.2921 46.6699 14.3132 46.7993 14.3132 46.9489C14.3132 47.2072 14.2921 47.2289 14.035 47.2505C13.3503 47.315 13.1578 47.5295 13.1578 47.8951C13.1578 48.2612 13.5217 49.2497 13.843 50.1517C14.1853 51.0339 14.5277 51.9575 15.2334 53.7417C15.6188 52.947 16.8172 50.4533 17.2659 49.4854C16.8594 48.4536 16.5812 47.7662 16.3887 47.5079C16.1967 47.2938 16.0679 47.2722 15.661 47.2072C15.5322 47.1856 15.5111 47.0995 15.5111 46.9706C15.5111 46.756 15.5537 46.6699 15.7682 46.6699C16.3461 46.6699 17.4368 46.6916 17.8222 46.6916C18.2929 46.6916 19.5123 46.6699 19.7479 46.6699C19.9614 46.6699 19.9825 46.756 19.9825 46.9489C19.9825 47.2072 19.9614 47.2289 19.7043 47.2722C19.0407 47.3145 18.6768 47.3366 18.6768 47.8518C18.6768 48.2396 20.0893 52.5381 20.4958 53.6994C21.1373 52.3024 21.8867 50.6678 22.3142 49.636C22.5498 49.0564 22.8706 48.2824 22.8706 47.8735C22.8706 47.3145 22.3568 47.2289 21.8646 47.2072C21.5865 47.2072 21.5654 47.1856 21.5654 46.9489C21.5654 46.756 21.5865 46.6699 21.7574 46.6699C21.9929 46.6699 22.7638 46.6916 23.448 46.6916C23.9613 46.6916 24.5818 46.6699 24.8599 46.6699C25.0098 46.6699 25.0524 46.756 25.0524 46.9066C25.0548 47.1216 24.9902 47.1649 24.8403 47.251Z" fill="black"/>
<path d="M30.403 55.7847C30.1037 55.7847 29.1404 55.7414 28.0924 55.7414C27.2578 55.7414 26.0599 55.7847 25.6534 55.7847C25.5035 55.7847 25.4609 55.7414 25.4609 55.548C25.4609 55.2907 25.5035 55.269 25.8033 55.2041C26.5095 55.0751 26.7661 54.9034 26.916 54.431C27.0864 53.8937 27.0864 52.1307 27.0864 50.8838C27.0864 48.6485 27.0864 48.3478 26.0594 48.2184C25.7171 48.1539 25.6955 48.1539 25.6955 47.9178C25.6955 47.6811 25.8023 47.6594 25.9948 47.5517C26.4013 47.3804 27.728 46.7354 28.2408 46.5194C28.4548 46.4116 28.6262 46.3688 28.7756 46.3688C28.9254 46.3688 28.9896 46.4337 28.9896 46.5622C28.9685 46.8628 28.9254 47.5084 28.9039 47.8523C28.8824 48.3459 28.8393 49.3142 28.8393 50.969C28.8393 51.6362 28.8393 54.001 28.9465 54.4729C29.0538 55.0751 29.4598 55.1396 30.2938 55.1829C30.5931 55.2045 30.6362 55.2478 30.6362 55.4835C30.6381 55.7414 30.5739 55.7847 30.403 55.7847ZM28.1345 43.4888C27.6423 43.4888 27.0649 42.9082 27.0649 42.4142C27.0649 41.8336 27.7285 41.2539 28.1991 41.2539C28.6913 41.2539 29.2903 41.8336 29.2903 42.3497C29.2898 42.887 28.7124 43.4888 28.1345 43.4888Z" fill="black"/>
<path d="M34.448 55.9774C33.5493 55.9774 32.822 55.8475 32.437 55.784C32.2446 55.7624 32.0727 55.7191 31.9879 55.7191C31.9238 55.7191 31.7739 55.7624 31.6882 55.7624C31.5599 55.7624 31.5173 55.6546 31.5173 55.4834C31.5173 55.2467 31.5393 54.8811 31.5393 54.4304C31.5393 54.0865 31.4531 53.3341 31.4531 53.1402C31.4531 52.9685 31.6241 52.9252 31.8601 52.9252C31.9884 52.9252 32.01 52.9685 32.0947 53.2908C32.5232 54.9042 33.9783 55.2467 34.7482 55.2467C36.1175 55.2467 36.4383 54.3438 36.4383 53.8065C36.4383 52.8819 35.6899 52.4312 34.277 51.765C33.0791 51.206 31.7945 50.5826 31.7945 49.0562C31.7945 48.0667 32.4797 46.498 35.282 46.498C36.0524 46.498 36.9721 46.6698 37.122 46.6698C37.1866 46.6698 37.336 46.6265 37.4212 46.6265C37.5711 46.6265 37.5711 46.6698 37.6137 46.9921C37.6563 47.4861 37.7636 48.454 37.7636 48.7984C37.7636 48.9913 37.7205 49.0562 37.3351 49.0562C37.2278 49.0562 37.1852 49.0129 37.0995 48.7762C36.8649 48.2611 36.265 47.2287 34.8956 47.2287C33.611 47.2287 33.4195 48.1317 33.4195 48.5405C33.4195 49.3785 33.9974 49.7441 35.644 50.5171C36.7993 51.0545 38.2543 51.7433 38.2543 53.3548C38.2563 55.5902 35.6895 55.9774 34.448 55.9774Z" fill="black"/>
<path d="M42.4055 55.9774C41.5068 55.9774 40.7795 55.8475 40.3945 55.784C40.2016 55.7624 40.0302 55.7191 39.945 55.7191C39.8808 55.7191 39.7309 55.7624 39.6457 55.7624C39.5174 55.7624 39.4748 55.6546 39.4748 55.4834C39.4748 55.2467 39.4959 54.8811 39.4959 54.4304C39.4959 54.0865 39.4102 53.3341 39.4102 53.1402C39.4102 52.9685 39.5816 52.9252 39.8171 52.9252C39.9454 52.9252 39.967 52.9685 40.0522 53.2908C40.4798 54.9042 41.9348 55.2467 42.7057 55.2467C44.0745 55.2467 44.3963 54.3438 44.3963 53.8065C44.3963 52.8819 43.6479 52.4312 42.235 51.765C41.0361 51.206 39.7525 50.5826 39.7525 49.0562C39.7525 48.0667 40.4376 46.498 43.2405 46.498C44.0108 46.498 44.9311 46.6698 45.0809 46.6698C45.1451 46.6698 45.295 46.6265 45.3802 46.6265C45.53 46.6265 45.53 46.6698 45.5727 46.9921C45.6158 47.4861 45.7225 48.454 45.7225 48.7984C45.7225 48.9913 45.679 49.0562 45.2945 49.0562C45.1868 49.0562 45.1446 49.0129 45.0589 48.7762C44.8238 48.2611 44.2253 47.2287 42.8546 47.2287C41.57 47.2287 41.3789 48.1317 41.3789 48.5405C41.3789 49.3785 41.9559 49.7441 43.6034 50.5171C44.7592 51.0545 46.2133 51.7433 46.2133 53.3548C46.2133 55.5902 43.647 55.9774 42.4055 55.9774Z" fill="black"/>
<path d="M58.0449 55.2045C57.9166 55.6557 57.8745 55.8284 57.6595 55.8284C57.2104 55.8284 56.847 55.7201 52.8452 55.7201C49.1442 55.7201 48.2877 55.8284 48.0305 55.8284C47.817 55.8284 47.7734 55.7634 47.7734 55.5484C47.7734 55.2478 47.7955 55.2478 48.1388 55.2045C49.3798 55.0967 49.4856 54.3881 49.5722 53.6353C49.7006 52.3023 49.7006 49.6153 49.7006 47.8527C49.7006 46.6492 49.7006 44.7361 49.7006 44.7361C49.7006 43.2958 49.5928 42.8658 48.5017 42.6945C48.01 42.6291 47.9678 42.608 47.9678 42.4146C47.9678 42.1139 48.01 42.0918 48.2024 42.0918C48.8656 42.0918 50.1066 42.1789 50.7271 42.1789C51.5185 42.1789 52.8883 42.0918 53.4231 42.0918C53.573 42.0918 53.6582 42.1572 53.6582 42.3285C53.6582 42.6291 53.6367 42.6508 53.2728 42.6945C52.331 42.7585 51.9461 42.9735 51.8178 43.6831C51.6473 44.4994 51.6258 47.9398 51.6258 49.3372C51.6258 51.2931 51.6473 53.5935 51.7962 54.2381C51.9035 54.7537 52.2453 54.7754 53.1435 54.7754C54.4703 54.7754 55.9464 54.7754 56.6961 54.3242C57.2731 53.9802 57.6585 53.2712 57.8941 52.4967C57.9793 52.196 58.0224 52.0243 58.1502 52.0243C58.5572 52.0243 58.6209 52.1104 58.6209 52.26C58.6228 52.5818 58.495 53.5709 58.0449 55.2045Z" fill="black"/>
<path d="M64.36 55.7847C64.0608 55.7847 63.098 55.7414 62.0494 55.7414C61.2153 55.7414 60.0174 55.7847 59.6104 55.7847C59.4606 55.7847 59.418 55.7414 59.418 55.548C59.418 55.2907 59.4611 55.269 59.7603 55.2041C60.467 55.0751 60.7236 54.9034 60.873 54.431C61.0435 53.8937 61.0435 52.1307 61.0435 50.8838C61.0435 48.6485 61.0435 48.3478 60.0165 48.2184C59.6741 48.1539 59.6526 48.1539 59.6526 47.9178C59.6526 47.6811 59.7593 47.6594 59.9518 47.5517C60.3588 47.3804 61.6846 46.7354 62.1973 46.5194C62.4123 46.4116 62.5833 46.3688 62.7322 46.3688C62.882 46.3688 62.9462 46.4337 62.9462 46.5622C62.9256 46.8628 62.8815 47.5084 62.8609 47.8523C62.8394 48.3459 62.7958 49.3142 62.7958 50.969C62.7958 51.6362 62.7958 54.001 62.9031 54.4729C63.0108 55.0751 63.4159 55.1396 64.2518 55.1829C64.5501 55.2045 64.5946 55.2478 64.5946 55.4835C64.5966 55.7414 64.5314 55.7847 64.36 55.7847ZM62.092 43.4888C61.6003 43.4888 61.0224 42.9082 61.0224 42.4142C61.0224 41.8336 61.686 41.2539 62.1567 41.2539C62.6493 41.2539 63.2478 41.8336 63.2478 42.3497C63.2478 42.887 62.6699 43.4888 62.092 43.4888Z" fill="black"/>
<path d="M73.5167 42.8872C73.387 42.8872 73.2586 42.7367 73.0025 42.5212C72.7023 42.2628 72.19 41.9189 71.0983 41.9189C68.7877 41.9189 68.6795 43.3375 68.6795 46.7134C68.8935 46.7134 71.2042 46.7134 71.6748 46.7134C71.8888 46.7134 71.8682 46.7779 71.8682 47.2507C71.8682 47.6808 71.8682 47.7881 71.5886 47.7881H68.6795C68.6795 49.7868 68.701 52.495 68.7216 53.7852C68.7662 54.9897 69.1722 55.1615 70.6057 55.1615C70.8843 55.1821 70.9049 55.2254 70.9049 55.4621C70.9049 55.7411 70.8628 55.806 70.4778 55.806C70.1561 55.806 68.5943 55.7627 67.5888 55.7627C66.8606 55.7627 65.9628 55.806 65.6205 55.806C65.5128 55.806 65.4922 55.6766 65.4922 55.527C65.4922 55.2687 65.5128 55.2471 65.7694 55.2038C66.6681 55.0749 66.8184 54.8598 66.8606 53.6558C66.9046 52.2377 66.9046 49.3567 66.9046 47.8097H65.7924C65.6626 47.7881 65.6626 47.7664 65.6626 47.5947C65.6626 47.3369 65.6626 47.3147 65.7694 47.2507L66.9252 46.7351C66.9688 44.8643 66.9903 44.0254 67.9527 42.7795C68.8729 41.575 70.4347 40.5859 72.1469 40.5859C73.7523 40.5859 74.6716 41.3595 74.6716 41.9617C74.672 42.4567 73.6867 42.8872 73.5167 42.8872Z" fill="black"/>
<path d="M79.7444 54.6031C78.93 55.3126 77.518 55.9784 76.0424 55.9784C72.9619 55.9784 72.3203 53.3341 72.3203 51.6995C72.3203 48.3462 74.5874 46.498 76.6203 46.498C77.6478 46.498 79.2733 47.0354 79.7865 48.9273C79.9149 49.443 80.0212 50.088 79.9149 50.1097C77.9897 50.4108 76.0855 50.7764 74.1804 51.1622C74.2441 52.6674 74.8229 54.7527 77.0689 54.7527C77.7536 54.7527 78.8232 54.5593 79.8081 53.807C79.8718 53.742 79.9149 53.7204 79.9369 53.807C79.9584 53.9575 79.98 54.0643 80.0015 54.2154C80.001 54.3659 79.9359 54.4525 79.7444 54.6031ZM76.0199 47.2725C74.7593 47.2725 74.1804 48.9061 74.1589 50.4969C75.0585 50.3464 75.6149 50.217 77.1551 49.8297C77.8182 49.658 77.9245 49.4858 77.9245 49.2708C77.925 48.4977 77.0914 47.2725 76.0199 47.2725Z" fill="black"/>
</svg>
