<?xml version="1.0" encoding="UTF-8"?>
<svg xmlns="http://www.w3.org/2000/svg" width="137.493" height="55" viewBox="0 0 137.493 55">
  <g id="BLOCKMARK_Vie_Plus" data-name="BLOCKMARK Vie Plus" transform="translate(-81.998 -16.543)">
    <g id="VIE" transform="translate(115.664 22.21)">
      <path id="V" d="M450.7,745.094l-7.885-22.429h3.2l6.407,19.444h.063l6.471-19.444h3.11l-7.978,22.429Z" transform="translate(-442.816 -722.666)" fill="#182a3e"/>
      <rect id="I" width="2.984" height="22.428" transform="translate(23.339 0)" fill="#182a3e"/>
      <path id="E" d="M492.375,722.666v2.513h-12.5v7.13h11.653v2.514H479.874v7.758h12.6v2.514H476.889V722.666Z" transform="translate(-443.97 -722.666)" fill="#182a3e"/>
    </g>
    <g id="PLUS" transform="translate(81.998 48.078)">
      <path id="P" d="M417.016,760.5a5.334,5.334,0,0,0,3.722-1.037,3.946,3.946,0,0,0,1.178-3.079,3.9,3.9,0,0,0-1.178-3.062,5.49,5.49,0,0,0-3.722-1.052h-5.843v8.23Zm1-10.743a6.963,6.963,0,0,1,5.136,1.744,7.734,7.734,0,0,1,0,9.784,6.826,6.826,0,0,1-5.136,1.728h-6.848v9.172h-2.984V749.761Z" transform="translate(-408.189 -749.227)" fill="#182a3e"/>
      <path id="L" d="M433.867,749.76v19.915h11.874v2.514H430.883V749.76Z" transform="translate(-408.958 -749.227)" fill="#182a3e"/>
      <path id="U" d="M466.194,770.539a9.19,9.19,0,0,1-6.534,2.152,10.165,10.165,0,0,1-6.769-2.057q-2.435-2.058-2.435-6.55V749.76h2.984v14.324a6.088,6.088,0,0,0,1.6,4.571,6.365,6.365,0,0,0,4.618,1.555,5.754,5.754,0,0,0,4.35-1.555,6.355,6.355,0,0,0,1.492-4.571V749.76h2.983v14.324q0,4.3-2.292,6.456" transform="translate(-409.621 -749.227)" fill="#182a3e"/>
      <path id="S" d="M486.871,752.805a6.332,6.332,0,0,0-3.816-1.084,9.13,9.13,0,0,0-1.854.188,4.906,4.906,0,0,0-1.617.629,3.3,3.3,0,0,0-1.131,1.178,3.646,3.646,0,0,0-.424,1.838,2.34,2.34,0,0,0,.612,1.68,4.544,4.544,0,0,0,1.634,1.053,13.684,13.684,0,0,0,2.309.675q1.287.267,2.623.581t2.623.738a8.675,8.675,0,0,1,2.308,1.147,5.457,5.457,0,0,1,1.634,1.822,6.388,6.388,0,0,1-.188,5.827,6.6,6.6,0,0,1-2.058,2.073,8.94,8.94,0,0,1-2.811,1.162,13.643,13.643,0,0,1-3.093.361,13.149,13.149,0,0,1-3.565-.471,8.8,8.8,0,0,1-2.953-1.429,6.775,6.775,0,0,1-2.011-2.45,7.893,7.893,0,0,1-.738-3.534h2.828a5.061,5.061,0,0,0,.55,2.435,4.98,4.98,0,0,0,1.444,1.68,6.085,6.085,0,0,0,2.089.974,9.581,9.581,0,0,0,2.45.314A11.136,11.136,0,0,0,485.74,770a5.976,5.976,0,0,0,1.839-.644,3.449,3.449,0,0,0,1.821-3.251,2.812,2.812,0,0,0-.613-1.885,4.5,4.5,0,0,0-1.633-1.179,12.008,12.008,0,0,0-2.309-.738q-1.288-.283-2.623-.581t-2.623-.692A9.464,9.464,0,0,1,477.29,760a4.957,4.957,0,0,1-1.633-1.666,4.9,4.9,0,0,1-.612-2.559,5.946,5.946,0,0,1,.691-2.938,6.045,6.045,0,0,1,1.838-2.041,8.239,8.239,0,0,1,2.608-1.193,11.5,11.5,0,0,1,3-.393,11.975,11.975,0,0,1,3.2.409,7.251,7.251,0,0,1,2.591,1.288,6.217,6.217,0,0,1,1.759,2.214,7.929,7.929,0,0,1,.707,3.188h-2.828a4.673,4.673,0,0,0-1.743-3.5" transform="translate(-410.43 -749.208)" fill="#182a3e"/>
    </g>
    <g id="LOGO_Vie_Plus" data-name="LOGO Vie Plus" transform="translate(173.351 16.543)">
      <path id="form-V" d="M540.225,754.486a15.1,15.1,0,0,1-15.022,15.09H519.6a15.1,15.1,0,0,1-15.021-15.09V740.178a15.1,15.1,0,0,1,15.021-15.09h9.043v-2.422H519.6a17.519,17.519,0,0,0-17.432,17.512v14.309A17.519,17.519,0,0,0,519.6,772H525.2a17.519,17.519,0,0,0,17.433-17.511V736.727h-2.411Z" transform="translate(-502.164 -716.999)" fill="#eb6c60"/>
      <path id="plus-2" data-name="plus" d="M543.772,722.467V716.8h-2.411v5.667h-5.667v2.41h5.667v5.667h2.411v-5.667h5.667v-2.41Z" transform="translate(-503.3 -716.8)" fill="#eb6c60"/>
      <path id="V-2" data-name="V" d="M514.275,737.154h-2.6L521.47,761.5h2.705l9.833-24.346h-2.6L522.822,758.4Z" transform="translate(-502.486 -717.344)" fill="#eb6c60"/>
    </g>
  </g>
</svg>
